<svg width="269" height="79" viewBox="0 0 269 79" fill="none" xmlns="http://www.w3.org/2000/svg">
<g clip-path="url(#clip0_6_719)">
<path d="M115.44 47.1992C118.44 47.1992 119.91 48.9792 119.91 51.4492C119.91 53.9192 118.45 55.7092 115.44 55.7092H112.44V47.1992H115.44ZM115.44 48.4592H113.86V54.4592H115.44C116.236 54.4592 116.999 54.1431 117.561 53.5805C118.124 53.0179 118.44 52.2549 118.44 51.4592C118.44 50.6636 118.124 49.9005 117.561 49.3379C116.999 48.7753 116.236 48.4592 115.44 48.4592Z" fill="#F7F5F3"/>
<path d="M128.93 47.1992V55.7092H127.55V47.1992H128.93Z" fill="#F7F5F3"/>
<path d="M136.12 55.7092L139.72 47.1992H141.24L144.83 55.7092H143.37L142.61 53.8692H138.35L137.59 55.7092H136.12ZM138.82 52.7092H142.13L140.63 48.9992C140.63 48.8692 140.53 48.7292 140.47 48.5292C140.41 48.7292 140.36 48.8692 140.32 48.9992L138.82 52.7092Z" fill="#F7F5F3"/>
<path d="M161 47.1992V55.7092H159.6V49.7092L156.91 53.7092H156.09L153.4 49.6592V55.6592H152V47.1992H153.26L156.49 52.0692L159.72 47.1992H161Z" fill="#F7F5F3"/>
<path d="M173.06 46.9986C173.933 47.0085 174.783 47.2764 175.503 47.7684C176.223 48.2605 176.782 48.9548 177.109 49.7639C177.435 50.5729 177.515 51.4605 177.338 52.3149C177.161 53.1692 176.735 53.9521 176.114 54.5648C175.493 55.1776 174.705 55.5928 173.848 55.7582C172.991 55.9236 172.105 55.8318 171.3 55.4943C170.496 55.1568 169.809 54.5887 169.327 53.8617C168.845 53.1346 168.588 52.2811 168.59 51.4086C168.565 50.8178 168.665 50.2283 168.881 49.6782C169.098 49.128 169.428 48.6292 169.849 48.2139C170.27 47.7986 170.773 47.4759 171.326 47.2666C171.879 47.0573 172.47 46.966 173.06 46.9986ZM173.06 48.2986C172.443 48.2907 171.838 48.4663 171.322 48.8032C170.805 49.1401 170.4 49.623 170.158 50.1905C169.917 50.758 169.85 51.3846 169.965 51.9905C170.081 52.5964 170.374 53.1542 170.807 53.5932C171.24 54.0322 171.794 54.3323 172.399 54.4556C173.003 54.5789 173.63 54.5197 174.201 54.2855C174.771 54.0514 175.26 53.6528 175.603 53.1405C175.947 52.6283 176.13 52.0254 176.13 51.4086C176.152 50.9998 176.087 50.591 175.94 50.2087C175.794 49.8265 175.568 49.4793 175.279 49.1898C174.989 48.9003 174.642 48.6749 174.26 48.5283C173.878 48.3816 173.469 48.317 173.06 48.3386V48.2986Z" fill="#F7F5F3"/>
<path d="M185.14 55.7092V47.1992H186.44L191 53.4192C191 53.1292 191 52.7992 191 52.4892V47.1992H192.39V55.7092H191.08L186.5 49.4792C186.5 49.7692 186.5 50.0992 186.5 50.4092V55.7092H185.14Z" fill="#F7F5F3"/>
<path d="M203.52 47.1992C206.52 47.1992 208 48.9792 208 51.4492C208 53.9192 206.54 55.7092 203.52 55.7092H200.52V47.1992H203.52ZM203.52 48.4592H201.94V54.4592H203.52C204.316 54.4592 205.079 54.1431 205.641 53.5805C206.204 53.0179 206.52 52.2549 206.52 51.4592C206.52 50.6636 206.204 49.9005 205.641 49.3379C205.079 48.7753 204.316 48.4592 203.52 48.4592Z" fill="#F7F5F3"/>
<path d="M218.17 47.0004C219.099 46.9889 220.017 47.2088 220.84 47.6404V49.0004C220.073 48.522 219.184 48.2754 218.28 48.2904C217.28 48.2904 216.59 48.6004 216.59 49.2904C216.59 51.1204 221.46 50.3804 221.46 53.4204C221.46 55.2104 219.94 55.8304 218.24 55.8204C217.192 55.8341 216.158 55.5757 215.24 55.0704V53.7604C216.111 54.3183 217.126 54.6102 218.16 54.6004C219.25 54.6004 220.07 54.3504 220.07 53.5404C220.07 51.5404 215.2 52.3804 215.2 49.3604C215.18 47.7904 216.57 47.0004 218.17 47.0004Z" fill="#F7F5F3"/>
<path d="M112.43 12.0002H105.8C105.766 11.9988 105.731 12.0046 105.699 12.0171C105.667 12.0297 105.638 12.0488 105.613 12.0732C105.589 12.0977 105.57 12.1269 105.557 12.1591C105.545 12.1912 105.539 12.2257 105.54 12.2602V35.9002C105.54 35.9692 105.568 36.0353 105.616 36.0841C105.665 36.1328 105.731 36.1602 105.8 36.1602H112.43C120.19 36.1602 125.53 30.8202 125.53 24.0902C125.53 17.3602 120.19 12.0002 112.43 12.0002ZM112.43 34.4002H108.29V13.7502H112.43C113.79 13.7147 115.142 13.9592 116.404 14.4685C117.665 14.9778 118.808 15.741 119.762 16.7107C120.715 17.6804 121.46 18.8359 121.948 20.1054C122.436 21.3749 122.658 22.7313 122.6 24.0902C122.66 25.4495 122.439 26.8065 121.951 28.0767C121.463 29.3468 120.719 30.5029 119.765 31.473C118.811 32.443 117.667 33.2062 116.405 33.715C115.143 34.2237 113.79 34.4672 112.43 34.4302V34.4002Z" fill="#F7F5F3"/>
<path d="M180.39 12.0002H178.57C178.469 11.9975 178.369 12.0221 178.281 12.0714C178.193 12.1207 178.12 12.1928 178.07 12.2802L167.9 28.5702H167.73L157.56 12.3102C157.506 12.2234 157.431 12.152 157.342 12.103C157.252 12.0539 157.152 12.0288 157.05 12.0302H155.05C155.015 12.0288 154.981 12.0345 154.949 12.0471C154.916 12.0597 154.887 12.0788 154.863 12.1032C154.838 12.1276 154.819 12.1569 154.807 12.1891C154.794 12.2212 154.788 12.2557 154.79 12.2902V35.9002C154.79 35.9692 154.817 36.0353 154.866 36.084C154.915 36.1328 154.981 36.1602 155.05 36.1602H156.25C156.319 36.1602 156.385 36.1328 156.434 36.084C156.482 36.0353 156.51 35.9692 156.51 35.9002V16.1602H156.68L166.76 32.2202C166.789 32.2653 166.829 32.3026 166.876 32.3287C166.923 32.3549 166.976 32.3691 167.03 32.3702H167.37C167.422 32.3702 167.474 32.3564 167.52 32.3301C167.566 32.3037 167.603 32.2658 167.63 32.2202L177.71 16.1602H177.89V35.9002C177.89 35.9692 177.917 36.0353 177.966 36.084C178.015 36.1328 178.081 36.1602 178.15 36.1602H180.38C180.449 36.1602 180.515 36.1328 180.564 36.084C180.612 36.0353 180.64 35.9692 180.64 35.9002V12.2902C180.646 12.2542 180.643 12.2173 180.634 12.1822C180.624 12.1471 180.606 12.1146 180.582 12.0869C180.559 12.0593 180.529 12.0372 180.496 12.0222C180.462 12.0072 180.426 11.9997 180.39 12.0002Z" fill="#F7F5F3"/>
<path d="M197.61 12.3112C197.575 12.2287 197.516 12.1582 197.442 12.1085C197.367 12.0587 197.279 12.0319 197.19 12.0312H195.56C195.469 12.0325 195.38 12.0594 195.304 12.109C195.228 12.1585 195.168 12.2287 195.13 12.3112L185.2 35.8813C185.187 35.9114 185.181 35.9444 185.184 35.9772C185.186 36.0101 185.197 36.0417 185.215 36.0694C185.233 36.0971 185.257 36.12 185.286 36.136C185.315 36.152 185.347 36.1607 185.38 36.1612H186.86C186.946 36.1614 187.03 36.1358 187.101 36.0877C187.173 36.0395 187.228 35.9711 187.26 35.8912L189.74 30.0012H202L204.47 35.9412C204.504 36.0196 204.56 36.0866 204.631 36.1344C204.701 36.1822 204.784 36.2089 204.87 36.2112H207.39C207.423 36.2107 207.455 36.202 207.484 36.186C207.513 36.17 207.537 36.1471 207.555 36.1194C207.573 36.0917 207.583 36.0601 207.586 36.0272C207.589 35.9944 207.583 35.9614 207.57 35.9312L197.61 12.3112ZM190.43 28.2312L195.77 15.4712H195.94L201.29 28.2312H190.43Z" fill="#F7F5F3"/>
<path d="M231.14 12.0002H229.94C229.905 11.9988 229.871 12.0046 229.839 12.0171C229.807 12.0297 229.777 12.0488 229.753 12.0732C229.728 12.0977 229.709 12.1269 229.697 12.1591C229.684 12.1912 229.678 12.2257 229.68 12.2602V32.3702H229.5L214.81 12.2102C214.771 12.1533 214.719 12.1069 214.658 12.0755C214.597 12.044 214.529 12.0284 214.46 12.0302H212.36C212.325 12.0289 212.29 12.0346 212.257 12.0471C212.225 12.0595 212.195 12.0785 212.169 12.1027C212.144 12.127 212.124 12.1561 212.111 12.1883C212.097 12.2206 212.09 12.2552 212.09 12.2902V35.9002C212.092 35.9701 212.122 36.0362 212.172 36.0847C212.223 36.1332 212.29 36.1603 212.36 36.1602H213.56C213.629 36.1602 213.695 36.1328 213.744 36.0841C213.792 36.0353 213.82 35.9692 213.82 35.9002V15.8202H214L228.68 36.0002C228.723 36.055 228.777 36.0996 228.84 36.1307C228.902 36.1618 228.97 36.1787 229.04 36.1802H231.14C231.209 36.1802 231.275 36.1528 231.324 36.1041C231.372 36.0553 231.4 35.9892 231.4 35.9202V12.2902C231.404 12.2536 231.401 12.2166 231.389 12.1815C231.378 12.1464 231.36 12.1141 231.335 12.0866C231.311 12.0592 231.28 12.0373 231.247 12.0224C231.213 12.0075 231.177 12 231.14 12.0002Z" fill="#F7F5F3"/>
<path d="M255 12H235.9C235.831 12 235.765 12.0274 235.716 12.0762C235.668 12.1249 235.64 12.191 235.64 12.26V13.46C235.64 13.529 235.668 13.5951 235.716 13.6439C235.765 13.6926 235.831 13.72 235.9 13.72H244.09V35.9C244.09 35.969 244.118 36.0351 244.166 36.0839C244.215 36.1326 244.281 36.16 244.35 36.16H246.58C246.65 36.1601 246.717 36.133 246.768 36.0845C246.818 36.036 246.848 35.9699 246.85 35.9V13.75H255C255.069 13.75 255.135 13.7226 255.184 13.6739C255.233 13.6251 255.26 13.559 255.26 13.49V12.29C255.264 12.2534 255.261 12.2164 255.25 12.1813C255.239 12.1462 255.22 12.1139 255.195 12.0864C255.171 12.059 255.141 12.0371 255.107 12.0222C255.073 12.0073 255.037 11.9998 255 12Z" fill="#F7F5F3"/>
<path d="M140.32 12.3113C140.284 12.2272 140.224 12.1556 140.148 12.1058C140.071 12.0559 139.981 12.03 139.89 12.0313H138.27C138.179 12.03 138.089 12.0559 138.012 12.1058C137.936 12.1556 137.876 12.2272 137.84 12.3113L127.9 35.8813C127.887 35.9115 127.881 35.9444 127.884 35.9773C127.887 36.0101 127.897 36.0418 127.915 36.0695C127.933 36.0972 127.957 36.1201 127.986 36.1361C128.015 36.1521 128.047 36.1608 128.08 36.1613H129.57C129.655 36.1589 129.738 36.1323 129.809 36.0845C129.88 36.0366 129.936 35.9696 129.97 35.8913L132.44 30.0013H144.68L147.15 35.9413C147.184 36.0196 147.24 36.0866 147.311 36.1345C147.382 36.1823 147.465 36.2089 147.55 36.2113H150.07C150.103 36.2108 150.135 36.2021 150.164 36.1861C150.193 36.1701 150.217 36.1472 150.235 36.1195C150.253 36.0918 150.263 36.0601 150.266 36.0273C150.269 35.9944 150.263 35.9615 150.25 35.9313L140.32 12.3113ZM133.13 28.2313L138.47 15.4713H138.65L144 28.2313H133.13Z" fill="#F7F5F3"/>
<path d="M91.0498 12.3112C91.0147 12.2287 90.9562 12.1582 90.8816 12.1085C90.807 12.0587 90.7194 12.0319 90.6297 12.0312H88.9998C88.9089 12.0325 88.8203 12.0594 88.7442 12.109C88.6681 12.1585 88.6076 12.2287 88.5698 12.3112L78.6398 35.8813C78.6266 35.9114 78.6211 35.9444 78.6237 35.9772C78.6263 36.0101 78.637 36.0417 78.6548 36.0694C78.6726 36.0971 78.697 36.12 78.7258 36.136C78.7545 36.152 78.7868 36.1607 78.8198 36.1612H80.2998C80.3858 36.1614 80.4699 36.1358 80.5412 36.0877C80.6125 36.0395 80.6677 35.9711 80.6997 35.8912L83.1798 30.0012H95.4198L97.8898 35.9412C97.9239 36.0196 97.9797 36.0866 98.0505 36.1344C98.1213 36.1822 98.2043 36.2089 98.2898 36.2112H100.81C100.843 36.2107 100.875 36.202 100.904 36.186C100.933 36.17 100.957 36.1471 100.975 36.1194C100.993 36.0917 101.003 36.0601 101.006 36.0272C101.008 35.9944 101.003 35.9614 100.99 35.9312L91.0498 12.3112ZM83.8698 28.2312L89.2098 15.4712H89.3797L94.7298 28.2312H83.8698Z" fill="#F7F5F3"/>
<path d="M56.1099 39.7781L56.5199 40.7781C56.562 40.8794 56.6421 40.9601 56.743 41.0031C56.8439 41.0461 56.9576 41.0479 57.0599 41.0081L62.0599 38.9281C62.7866 38.625 63.4077 38.1141 63.8453 37.4594C64.2829 36.8048 64.5176 36.0355 64.5199 35.2481V28.2481C64.5176 27.4607 64.2829 26.6915 63.8453 26.0368C63.4077 25.3822 62.7866 24.8713 62.0599 24.5681L49.4299 19.3681C49.1503 19.2583 48.8395 19.2583 48.5599 19.3681L47.2399 19.9181C46.6499 20.1781 46.0699 20.4481 45.4999 20.7381L41.4999 22.8181C41.4806 22.8326 41.4568 22.8396 41.4328 22.8379C41.4088 22.8362 41.3862 22.8259 41.3692 22.8088C41.3521 22.7918 41.3418 22.7692 41.3401 22.7452C41.3384 22.7212 41.3454 22.6974 41.3599 22.6781L43.4399 18.6181C43.7199 18.0881 43.9699 17.5381 44.2099 16.9881L44.7999 15.5581C44.8594 15.4226 44.8901 15.2762 44.8901 15.1281C44.8901 14.9801 44.8594 14.8337 44.7999 14.6981L42.8299 9.99813L49.0699 7.40812C49.4462 7.25503 49.8592 7.21607 50.2576 7.29609C50.6559 7.37611 51.0219 7.57157 51.3099 7.85813L56.2299 12.7681C56.5179 13.0574 56.7134 13.4257 56.7918 13.8263C56.8701 14.2269 56.8277 14.6417 56.6699 15.0181L54.5899 20.0181C54.5501 20.1203 54.5519 20.2341 54.5949 20.335C54.6379 20.4359 54.7186 20.516 54.8199 20.5581L55.8199 20.9681C55.8697 20.9895 55.9233 21.0007 55.9776 21.0011C56.0318 21.0016 56.0856 20.9913 56.1358 20.9709C56.186 20.9504 56.2317 20.9202 56.2701 20.8819C56.3086 20.8437 56.3391 20.7982 56.3599 20.7481L58.4399 15.7481C58.7381 15.0194 58.8146 14.2189 58.6599 13.4468C58.5051 12.6748 58.1259 11.9656 57.5699 11.4081L52.6799 6.51813C52.1224 5.96205 51.4132 5.58287 50.6412 5.4281C49.8691 5.27334 49.0686 5.34988 48.3399 5.64812L35.6499 10.9981C35.5111 11.0533 35.3847 11.1357 35.2782 11.2405C35.1718 11.3452 35.0873 11.4702 35.0299 11.6081L34.6799 12.4681C34.3799 13.2081 34.0999 13.9581 33.8499 14.7181L32.4599 18.9981C32.4599 19.0246 32.4493 19.0501 32.4306 19.0688C32.4118 19.0876 32.3864 19.0981 32.3599 19.0981C32.3333 19.0981 32.3079 19.0876 32.2892 19.0688C32.2704 19.0501 32.2599 19.0246 32.2599 18.9981L30.8699 14.6681C30.6232 13.9081 30.3332 13.1515 29.9999 12.3981L29.6499 11.5581C29.5956 11.42 29.5134 11.2945 29.4084 11.1896C29.3035 11.0846 29.178 11.0024 29.0399 10.9481L24.3799 8.99813L26.9999 2.76813C27.1571 2.39064 27.4222 2.06789 27.7619 1.84023C28.1016 1.61256 28.5009 1.49009 28.9099 1.48812H35.9099C36.3188 1.49009 36.7181 1.61256 37.0578 1.84023C37.3975 2.06789 37.6626 2.39064 37.8199 2.76813L39.8999 7.76813C39.942 7.86938 40.0221 7.95013 40.123 7.99311C40.2239 8.03609 40.3376 8.03789 40.4399 7.99813L41.4399 7.57812C41.49 7.55736 41.5354 7.52687 41.5737 7.48841C41.6119 7.44994 41.6421 7.40428 41.6626 7.35405C41.6831 7.30383 41.6934 7.25005 41.6929 7.19582C41.6924 7.14159 41.6812 7.08799 41.6599 7.03813L39.5899 2.03813C39.2867 1.31139 38.7758 0.690299 38.1212 0.25269C37.4665 -0.184919 36.6973 -0.419577 35.9099 -0.421875H28.9099C28.1224 -0.419577 27.3532 -0.184919 26.6986 0.25269C26.0439 0.690299 25.533 1.31139 25.2299 2.03813L19.9999 14.6981C19.9404 14.8337 19.9097 14.9801 19.9097 15.1281C19.9097 15.2762 19.9404 15.4226 19.9999 15.5581L20.5699 16.9581C20.8199 17.5181 21.0799 18.0781 21.3599 18.6181L23.4399 22.6781C23.4543 22.6974 23.4613 22.7212 23.4596 22.7452C23.4579 22.7692 23.4476 22.7918 23.4306 22.8088C23.4136 22.8259 23.391 22.8362 23.367 22.8379C23.3429 22.8396 23.3191 22.8326 23.2999 22.8181L19.2499 20.7381C18.7099 20.4581 18.1599 20.2081 17.5999 19.9581L16.1799 19.3681C15.9003 19.2583 15.5895 19.2583 15.3099 19.3681L10.6299 21.2981L8.04986 15.0581C7.89204 14.6817 7.8496 14.2669 7.92794 13.8663C8.00628 13.4657 8.20186 13.0974 8.48986 12.8081L13.4099 7.89812C13.6979 7.61157 14.0638 7.41611 14.4622 7.33609C14.8605 7.25607 15.2735 7.29503 15.6499 7.44813L20.6499 9.53813C20.7521 9.57789 20.8658 9.57609 20.9667 9.53311C21.0676 9.49013 21.1477 9.40938 21.1899 9.30812L21.5999 8.30812C21.6212 8.25826 21.6324 8.20466 21.6329 8.15043C21.6334 8.0962 21.6231 8.04242 21.6026 7.9922C21.5821 7.94197 21.5519 7.89631 21.5137 7.85785C21.4754 7.81938 21.43 7.78889 21.3799 7.76813L16.3799 5.68813C15.6511 5.38988 14.8506 5.31334 14.0786 5.4681C13.3065 5.62287 12.5973 6.00205 12.0399 6.55812L7.14986 11.4481C6.59378 12.0056 6.21461 12.7148 6.05984 13.4868C5.90508 14.2589 5.98162 15.0594 6.27986 15.7881L11.5299 28.4681C11.6477 28.7444 11.8656 28.9658 12.1399 29.0881L12.9899 29.4381C13.7299 29.7381 14.4899 30.0181 15.2599 30.2581L19.5899 31.6581C19.6164 31.6581 19.6418 31.6687 19.6606 31.6874C19.6793 31.7062 19.6899 31.7316 19.6899 31.7581C19.6899 31.7846 19.6793 31.8101 19.6606 31.8288C19.6418 31.8476 19.6164 31.8581 19.5899 31.8581L15.2599 33.2481C14.4599 33.5081 13.6699 33.7981 12.8899 34.1181L12.1699 34.4181C12.0326 34.4739 11.9079 34.5567 11.8032 34.6614C11.6984 34.7662 11.6157 34.8909 11.5599 35.0281L9.55986 39.7381L3.30986 37.1481C2.93426 36.9922 2.61323 36.7285 2.38723 36.3904C2.16122 36.0523 2.04036 35.6548 2.03986 35.2481V28.2481C2.03838 27.8397 2.15832 27.4401 2.38445 27.1C2.61057 26.7599 2.93269 26.4947 3.30986 26.3381L8.30986 24.2581C8.41112 24.216 8.49187 24.1359 8.53484 24.035C8.57782 23.9341 8.57963 23.8203 8.53986 23.7181L8.11986 22.7181C8.10025 22.6671 8.07039 22.6207 8.03214 22.5817C7.99389 22.5427 7.94805 22.5119 7.89746 22.4913C7.84686 22.4707 7.79258 22.4607 7.73795 22.4618C7.68333 22.463 7.62953 22.4754 7.57986 22.4981L2.57986 24.5781C1.85126 24.8797 1.22806 25.39 0.788589 26.0448C0.349119 26.6995 0.112985 27.4696 0.109863 28.2581V35.2581C0.112985 36.0467 0.349119 36.8167 0.788589 37.4715C1.22806 38.1263 1.85126 38.6365 2.57986 38.9381L15.2199 44.1681C15.3573 44.2273 15.5053 44.2578 15.6549 44.2578C15.8045 44.2578 15.9525 44.2273 16.0899 44.1681L17.5799 43.5581C18.1099 43.3181 18.6399 43.0781 19.1599 42.8081L23.2099 40.7281C23.2291 40.7137 23.2529 40.7067 23.277 40.7084C23.301 40.7101 23.3236 40.7204 23.3406 40.7374C23.3576 40.7544 23.3679 40.777 23.3696 40.801C23.3713 40.825 23.3643 40.8489 23.3499 40.8681L21.2699 44.8681C20.9999 45.3981 20.7499 45.9481 20.4999 46.4881L19.9999 47.9981C19.9404 48.1337 19.9097 48.2801 19.9097 48.4281C19.9097 48.5762 19.9404 48.7226 19.9999 48.8581L21.9199 53.5181L15.6799 56.0981C15.303 56.2533 14.8888 56.2943 14.4888 56.2161C14.0888 56.1379 13.7205 55.9439 13.4299 55.6581L8.51986 50.7481C8.23186 50.4589 8.03628 50.0906 7.95794 49.69C7.8796 49.2894 7.92204 48.8746 8.07986 48.4981L10.1599 43.4981C10.1996 43.3959 10.1978 43.2822 10.1548 43.1813C10.1119 43.0804 10.0311 43.0003 9.92986 42.9581L8.92986 42.5481C8.88 42.5268 8.8264 42.5156 8.77217 42.5151C8.71794 42.5146 8.66416 42.5249 8.61394 42.5454C8.56371 42.5659 8.51805 42.5961 8.47958 42.6343C8.44112 42.6725 8.41063 42.718 8.38986 42.7681L6.30986 47.7681C6.01162 48.4969 5.93508 49.2974 6.08984 50.0694C6.24461 50.8415 6.62379 51.5507 7.17986 52.1081L12.0499 56.9981C12.6073 57.5542 13.3165 57.9334 14.0886 58.0881C14.8606 58.2429 15.6611 58.1664 16.3899 57.8681L29.0699 52.6181C29.3491 52.4996 29.5714 52.2773 29.6899 51.9981L29.9999 51.2481C30.3199 50.4781 30.6099 49.6881 30.8699 48.8881L32.2599 44.5581C32.2599 44.5316 32.2704 44.5062 32.2892 44.4874C32.3079 44.4687 32.3333 44.4581 32.3599 44.4581C32.3864 44.4581 32.4118 44.4687 32.4306 44.4874C32.4493 44.5062 32.4599 44.5316 32.4599 44.5581L33.8499 48.8881C34.1099 49.6881 34.3999 50.4781 34.7199 51.2481L34.9999 51.9981C35.1213 52.2695 35.3385 52.4866 35.6099 52.6081L40.3099 54.5481L37.7299 60.7981C37.5721 61.1745 37.3067 61.4959 36.9668 61.7219C36.627 61.9478 36.228 62.0683 35.8199 62.0681H28.8199C28.425 62.0493 28.0437 61.9179 27.7212 61.6893C27.3987 61.4607 27.1484 61.1445 26.9999 60.7781L24.9199 55.7781C24.8991 55.728 24.8686 55.6825 24.8301 55.6443C24.7917 55.6061 24.746 55.5759 24.6958 55.5554C24.6456 55.5349 24.5918 55.5246 24.5376 55.5251C24.4833 55.5256 24.4297 55.5368 24.3799 55.5581L23.3799 55.9681C23.2786 56.0103 23.1979 56.0904 23.1549 56.1913C23.1119 56.2922 23.1101 56.4059 23.1499 56.5081L25.2299 61.5081C25.5264 62.2358 26.0307 62.86 26.6799 63.3028C27.329 63.7457 28.0942 63.9875 28.8799 63.9981H35.8799C36.6684 63.995 37.4385 63.7589 38.0932 63.3194C38.748 62.8799 39.2582 62.2567 39.5599 61.5281L44.7899 48.8781C44.8494 48.7426 44.8801 48.5962 44.8801 48.4481C44.8801 48.3001 44.8494 48.1537 44.7899 48.0181L44.1599 46.4781C43.9299 45.9681 43.6899 45.4781 43.4299 44.9481L41.3499 40.9481C41.3354 40.9289 41.3284 40.905 41.3301 40.881C41.3318 40.857 41.3421 40.8344 41.3592 40.8174C41.3762 40.8004 41.3988 40.7901 41.4228 40.7884C41.4468 40.7867 41.4706 40.7937 41.4899 40.8081L45.4899 42.8881C46.0599 43.1781 46.6499 43.4481 47.2499 43.7081L48.5499 44.2481C48.6873 44.3073 48.8353 44.3378 48.9849 44.3378C49.1345 44.3378 49.2825 44.3073 49.4199 44.2481L54.0799 42.3181L56.6599 48.5681C56.8151 48.9457 56.8552 49.3608 56.7751 49.7612C56.6951 50.1615 56.4984 50.5293 56.2099 50.8181L51.2999 55.7281C51.0119 56.0147 50.6459 56.2101 50.2476 56.2902C49.8493 56.3702 49.4362 56.3312 49.0599 56.1781L43.9999 53.9981C43.8976 53.9584 43.7839 53.9602 43.683 54.0031C43.5821 54.0461 43.502 54.1269 43.4599 54.2281L43.0499 55.2281C43.0285 55.278 43.0173 55.3316 43.0168 55.3858C43.0164 55.44 43.0267 55.4938 43.0471 55.5441C43.0676 55.5943 43.0978 55.6399 43.136 55.6784C43.1743 55.7169 43.2198 55.7474 43.2699 55.7681L48.2699 57.8481C49.0043 58.1619 49.8159 58.2486 50.6001 58.0971C51.3843 57.9457 52.1051 57.5629 52.6699 56.9981L57.5599 52.1081C58.1159 51.5507 58.4951 50.8415 58.6499 50.0694C58.8046 49.2974 58.7281 48.4969 58.4299 47.7681L53.1799 35.0581C53.062 34.7819 52.8441 34.5604 52.5699 34.4381L51.7299 34.0981C50.9832 33.7848 50.2232 33.5048 49.4499 33.2581L45.1199 31.8681C45.0933 31.8681 45.0679 31.8576 45.0492 31.8388C45.0304 31.8201 45.0199 31.7946 45.0199 31.7681C45.0199 31.7416 45.0304 31.7162 45.0492 31.6974C45.0679 31.6787 45.0933 31.6681 45.1199 31.6681L49.4499 30.2681C50.2199 30.0281 50.9699 29.7481 51.7099 29.4481L52.5699 29.0981C52.8441 28.9758 53.062 28.7544 53.1799 28.4781L55.1199 23.7881L61.3599 26.3681C61.7381 26.5243 62.0616 26.7891 62.2894 27.1291C62.5173 27.469 62.6392 27.8689 62.6399 28.2781V35.2781C62.6372 35.6857 62.5144 36.0833 62.2867 36.4213C62.059 36.7593 61.7366 37.0226 61.3599 37.1781L56.3599 39.2581C56.2581 39.2944 56.1747 39.3693 56.1279 39.4667C56.0811 39.5641 56.0746 39.676 56.1099 39.7781ZM32.2599 22.4981C32.2599 22.4716 32.2704 22.4462 32.2892 22.4274C32.3079 22.4087 32.3333 22.3981 32.3599 22.3981C32.3864 22.3981 32.4118 22.4087 32.4306 22.4274C32.4493 22.4462 32.4599 22.4716 32.4599 22.4981L33.1799 24.6781C33.4999 25.6781 33.8499 26.6081 34.2399 27.5481L36.5199 33.0581H28.1999L30.4799 27.5381C30.8699 26.6081 31.2199 25.6581 31.5299 24.6981L32.2599 22.4981ZM15.7199 42.2781L11.3599 40.4781L13.1799 36.0781L22.6899 32.1381C22.7632 32.108 22.826 32.0567 22.8701 31.9908C22.9143 31.925 22.9379 31.8474 22.9379 31.7681C22.9379 31.6888 22.9143 31.6113 22.8701 31.5454C22.826 31.4795 22.7632 31.4283 22.6899 31.3981L13.1799 27.4581L11.3599 23.0581L15.7199 21.2581L25.2799 25.2581C25.3536 25.2888 25.4349 25.2967 25.5131 25.2808C25.5914 25.2649 25.6631 25.226 25.7191 25.169C25.775 25.112 25.8126 25.0395 25.827 24.9609C25.8414 24.8824 25.832 24.8013 25.7999 24.7281L21.8499 15.1781L23.6499 10.8181L28.0499 12.6381L31.3299 20.5681L23.6899 38.9981L15.7199 42.2781ZM42.8699 48.4081L41.0699 52.7681L36.6699 50.9981L32.7299 41.4781C32.6997 41.4048 32.6485 41.342 32.5826 41.2979C32.5167 41.2537 32.4392 41.2301 32.3599 41.2301C32.2806 41.2301 32.203 41.2537 32.1371 41.2979C32.0713 41.342 32.02 41.4048 31.9899 41.4781L28.0499 50.9981L23.6499 52.8181L21.8499 48.4581L27.4099 34.9981H37.3099L42.8699 48.4081ZM51.5399 27.4581L41.9999 31.3981C41.9265 31.4283 41.8637 31.4795 41.8196 31.5454C41.7754 31.6113 41.7519 31.6888 41.7519 31.7681C41.7519 31.8474 41.7754 31.925 41.8196 31.9908C41.8637 32.0567 41.9265 32.108 41.9999 32.1381L51.5199 36.0781L53.3399 40.4781L48.9999 42.2781L40.9999 38.9981L33.3899 20.5081L36.6699 12.5881L41.0699 10.7681L42.8699 15.1281L38.9199 24.6781C38.8878 24.7513 38.8783 24.8324 38.8927 24.9109C38.9071 24.9895 38.9447 25.062 39.0006 25.119C39.0566 25.176 39.1283 25.215 39.2066 25.2308C39.2849 25.2467 39.3661 25.2388 39.4399 25.2081L48.9999 21.2081L53.3599 23.0081L51.5399 27.4581Z" fill="#F7F5F3"/>
<path d="M21.74 0.599403C21.7412 0.533358 21.7268 0.467963 21.6979 0.408533C21.6691 0.349103 21.6266 0.297313 21.574 0.257368C21.5214 0.217423 21.4601 0.190451 21.3951 0.178641C21.3302 0.166832 21.2633 0.170519 21.2 0.189403C20.6291 0.349759 20.0682 0.543425 19.52 0.769403C18.9692 0.999174 18.4317 1.25958 17.91 1.5494C17.8537 1.58355 17.8058 1.62988 17.7698 1.68499C17.7338 1.7401 17.7107 1.80259 17.702 1.86784C17.6934 1.93309 17.6995 1.99945 17.7199 2.06202C17.7403 2.1246 17.7745 2.18179 17.82 2.2294C18.2468 2.64535 18.6976 3.03601 19.17 3.3994C19.6419 3.7634 20.1362 4.09739 20.65 4.3994C20.707 4.43232 20.7709 4.4517 20.8366 4.45605C20.9023 4.46039 20.9681 4.44959 21.029 4.42447C21.0899 4.39934 21.1441 4.36058 21.1877 4.31115C21.2312 4.26173 21.2628 4.20297 21.28 4.1394C21.4288 3.56353 21.5424 2.97911 21.62 2.3894C21.6994 1.79604 21.7395 1.19806 21.74 0.599403Z" fill="#F7F5F3"/>
<path d="M46.8898 61.3195C46.9371 61.3652 46.9729 61.4214 46.9945 61.4835C47.0161 61.5457 47.0227 61.612 47.014 61.6772C47.0052 61.7424 46.9813 61.8046 46.9441 61.8588C46.9069 61.9131 46.8575 61.9578 46.7998 61.9895C46.2826 62.2814 45.7483 62.5418 45.1998 62.7695C44.6482 62.9955 44.0839 63.1892 43.5098 63.3495C43.4465 63.3684 43.3796 63.372 43.3146 63.3602C43.2496 63.3484 43.1884 63.3214 43.1357 63.2815C43.0831 63.2416 43.0407 63.1898 43.0119 63.1303C42.983 63.0709 42.9686 63.0055 42.9698 62.9395C42.9786 62.3441 43.022 61.7498 43.0998 61.1595C43.1765 60.5696 43.29 59.9851 43.4398 59.4095C43.4537 59.345 43.483 59.2848 43.5252 59.234C43.5673 59.1832 43.6211 59.1434 43.682 59.1178C43.7429 59.0923 43.809 59.0819 43.8748 59.0874C43.9405 59.0929 44.004 59.1142 44.0598 59.1495C44.5758 59.448 45.0703 59.7821 45.5398 60.1495C46.017 60.507 46.4681 60.898 46.8898 61.3195Z" fill="#F7F5F3"/>
<path d="M63.5302 21.1572C63.5955 21.1564 63.6598 21.1406 63.7182 21.1112C63.7765 21.0817 63.8274 21.0394 63.867 20.9873C63.9065 20.9352 63.9336 20.8749 63.9463 20.8107C63.959 20.7466 63.9569 20.6804 63.9402 20.6172C63.7809 20.0415 63.5838 19.477 63.3502 18.9272C63.1238 18.3799 62.8667 17.8457 62.5802 17.3272C62.5474 17.2694 62.5016 17.22 62.4465 17.1828C62.3914 17.1457 62.3284 17.1218 62.2626 17.1131C62.1967 17.1044 62.1296 17.111 62.0668 17.1326C62.0039 17.1541 61.9469 17.19 61.9002 17.2372C61.4842 17.6641 61.0936 18.1149 60.7302 18.5872C60.3662 19.0591 60.0322 19.5535 59.7302 20.0672C59.6971 20.1235 59.6777 20.1867 59.6733 20.2518C59.6689 20.3169 59.6798 20.3821 59.705 20.4423C59.7303 20.5025 59.7692 20.5559 59.8187 20.5984C59.8682 20.641 59.9269 20.6714 59.9902 20.6872C60.5658 20.837 61.1503 20.9505 61.7402 21.0272C62.3338 21.105 62.9315 21.1484 63.5302 21.1572Z" fill="#F7F5F3"/>
<path d="M2.81013 46.3112C2.76344 46.3565 2.70706 46.3907 2.64524 46.4111C2.58343 46.4315 2.51779 46.4376 2.45327 46.4289C2.38876 46.4203 2.32705 46.3971 2.27281 46.3611C2.21856 46.3251 2.1732 46.2773 2.14013 46.2212C1.84833 45.7005 1.58787 45.1629 1.36013 44.6112C1.13126 44.0641 0.937532 43.5029 0.780131 42.9312C0.758843 42.8678 0.753375 42.8002 0.764202 42.7342C0.775028 42.6683 0.801821 42.6059 0.842246 42.5527C0.882672 42.4995 0.935503 42.4569 0.996138 42.4288C1.05677 42.4006 1.12337 42.3877 1.19013 42.3912C1.78547 42.3917 2.38012 42.4317 2.97013 42.5112C3.55999 42.5879 4.14446 42.7014 4.72013 42.8512C4.7849 42.8665 4.84509 42.8971 4.89573 42.9403C4.94638 42.9835 4.98603 43.0381 5.01142 43.0996C5.03682 43.1611 5.04722 43.2278 5.04178 43.2942C5.03634 43.3605 5.01521 43.4246 4.98013 43.4812C4.68602 44.0081 4.3587 44.5158 4.00013 45.0012C3.62942 45.4607 3.23207 45.8982 2.81013 46.3112Z" fill="#F7F5F3"/>
<path d="M46.9998 1.99869C47.0471 1.95295 47.083 1.89675 47.1045 1.83461C47.1261 1.77248 47.1328 1.70615 47.124 1.64096C47.1153 1.57578 47.0913 1.51356 47.0541 1.45932C47.0169 1.40508 46.9675 1.36033 46.9098 1.32869C46.3902 1.03485 45.8525 0.774322 45.2998 0.548689C44.7427 0.327399 44.1715 0.143655 43.5898 -0.0013113C43.5258 -0.018252 43.4588 -0.0201837 43.3939 -0.00695514C43.329 0.0062734 43.2681 0.0343051 43.2158 0.074954C43.1635 0.115603 43.1214 0.167772 43.0926 0.227394C43.0638 0.287017 43.0492 0.352482 43.0498 0.418689C43.0556 1.01383 43.0957 1.60815 43.1698 2.19869C43.2495 2.80456 43.363 3.40549 43.5098 3.99869C43.527 4.06225 43.5586 4.12101 43.6021 4.17044C43.6457 4.21986 43.7 4.25863 43.7608 4.28375C43.8217 4.30888 43.8875 4.31968 43.9532 4.31534C44.019 4.31099 44.0828 4.29161 44.1398 4.25869C44.6536 3.95668 45.1479 3.62269 45.6198 3.25869C46.1051 2.86718 46.5659 2.4464 46.9998 1.99869Z" fill="#F7F5F3"/>
<path d="M21.6602 63.1301C21.6631 63.1957 21.6502 63.261 21.6226 63.3206C21.595 63.3802 21.5535 63.4323 21.5015 63.4724C21.4496 63.5126 21.3887 63.5398 21.3241 63.5515C21.2595 63.5633 21.193 63.5594 21.1302 63.5401C20.557 63.3929 19.9927 63.2126 19.4402 63.0001C18.8885 62.7723 18.3509 62.5119 17.8302 62.2201C17.7731 62.1864 17.7246 62.14 17.6884 62.0845C17.6522 62.0289 17.6293 61.9658 17.6216 61.8999C17.6139 61.8341 17.6214 61.7673 17.6437 61.7049C17.6661 61.6425 17.7025 61.5861 17.7502 61.5401C18.1759 61.1266 18.6232 60.7361 19.0902 60.3701C19.5662 60.0117 20.0602 59.678 20.5702 59.3701C20.6273 59.3372 20.6911 59.3178 20.7568 59.3134C20.8225 59.3091 20.8884 59.3199 20.9492 59.345C21.0101 59.3701 21.0644 59.4089 21.1079 59.4583C21.1514 59.5078 21.183 59.5665 21.2002 59.6301C21.35 60.2091 21.4635 60.7969 21.5402 61.3901C21.6182 61.9668 21.6583 62.5481 21.6602 63.1301Z" fill="#F7F5F3"/>
<path d="M62.0899 46.381C62.1356 46.4282 62.1918 46.4641 62.254 46.4857C62.3161 46.5072 62.3824 46.5139 62.4476 46.5051C62.5128 46.4964 62.575 46.4724 62.6293 46.4352C62.6835 46.398 62.7282 46.3486 62.7599 46.291C63.0537 45.7748 63.3142 45.2404 63.5399 44.691C63.7691 44.1395 63.9661 43.5752 64.1299 43.001C64.1468 42.937 64.1488 42.8699 64.1355 42.805C64.1223 42.7402 64.0943 42.6792 64.0536 42.6269C64.013 42.5747 63.9608 42.5325 63.9012 42.5037C63.8416 42.4749 63.7761 42.4603 63.7099 42.461C63.1145 42.4698 62.5202 42.5132 61.9299 42.591C61.34 42.6677 60.7556 42.7812 60.1799 42.931C60.1163 42.9482 60.0576 42.9798 60.0081 43.0233C59.9587 43.0668 59.9199 43.1211 59.8948 43.182C59.8697 43.2428 59.8589 43.3087 59.8632 43.3744C59.8676 43.4401 59.887 43.5039 59.9199 43.561C60.222 44.0715 60.556 44.5625 60.9199 45.031C61.2833 45.5033 61.6739 45.9541 62.0899 46.381Z" fill="#F7F5F3"/>
<path d="M0.999794 21.0792C0.933748 21.0804 0.868355 21.0659 0.808924 21.0371C0.749494 21.0083 0.697703 20.9658 0.657758 20.9132C0.617814 20.8606 0.590841 20.7993 0.579032 20.7343C0.567222 20.6693 0.57091 20.6025 0.589794 20.5392C0.750106 19.965 0.943768 19.4007 1.16979 18.8492C1.39744 18.3007 1.65791 17.7664 1.94979 17.2492C1.98144 17.1915 2.02618 17.1421 2.08042 17.1049C2.13466 17.0677 2.19688 17.0437 2.26207 17.035C2.32725 17.0262 2.39359 17.0329 2.45572 17.0545C2.51785 17.076 2.57406 17.1119 2.61979 17.1592C3.04175 17.5833 3.4359 18.0343 3.79979 18.5092C4.16401 18.9809 4.49801 19.4752 4.79979 19.9892C4.83508 20.0449 4.85639 20.1084 4.86189 20.1742C4.8674 20.24 4.85695 20.3061 4.83142 20.3669C4.8059 20.4278 4.76606 20.4816 4.71529 20.5238C4.66451 20.566 4.60431 20.5953 4.53979 20.6092C3.96413 20.7589 3.37965 20.8725 2.78979 20.9492C2.19617 21.0273 1.59848 21.0707 0.999794 21.0792Z" fill="#F7F5F3"/>
</g>
<defs>
<clipPath id="clip0_6_719">
<rect width="269" height="79" fill="white"/>
</clipPath>
</defs>
</svg>
