<svg width="45" height="44" viewBox="0 0 45 44" fill="none" xmlns="http://www.w3.org/2000/svg">
<path d="M38.7371 27.4763L39.0169 28.162C39.0459 28.2312 39.101 28.2861 39.1703 28.3149C39.2396 28.3436 39.3175 28.3438 39.387 28.3153L42.8167 26.8944C43.3163 26.6903 43.7435 26.3416 44.0434 25.8931C44.3433 25.4446 44.5023 24.9167 44.5 24.3773V19.6227C44.5023 19.0832 44.3433 18.5554 44.0434 18.1069C43.7435 17.6584 43.3163 17.3097 42.8167 17.1056L34.1656 13.5284C34.0723 13.4883 33.9717 13.4677 33.8701 13.4677C33.7684 13.4677 33.6678 13.4883 33.5745 13.5284L32.6719 13.9028C32.2703 14.0787 31.8686 14.2592 31.4805 14.4622L28.7142 15.8831C28.7003 15.8916 28.6841 15.8952 28.668 15.8932C28.6519 15.8913 28.6369 15.8841 28.6254 15.8726C28.6139 15.8612 28.6067 15.8462 28.6048 15.8301C28.6029 15.814 28.6064 15.7977 28.6149 15.7839L30.0364 13.0142C30.226 12.6488 30.402 12.2744 30.5644 11.8954L30.9706 10.9211C31.0471 10.7315 31.0471 10.5197 30.9706 10.3301L29.6528 7.14539L33.9174 5.37709C34.1756 5.27101 34.4594 5.24354 34.7332 5.29811C35.007 5.35268 35.2586 5.48687 35.4563 5.68384L38.8138 9.04451C39.0115 9.24082 39.1463 9.49152 39.2009 9.76466C39.2556 10.0378 39.2277 10.321 39.1207 10.5782L37.6992 14.0156C37.6707 14.085 37.6709 14.1628 37.6996 14.2321C37.7284 14.3014 37.7834 14.3566 37.8526 14.3855L38.534 14.6652C38.5681 14.6792 38.6046 14.6863 38.6414 14.6862C38.6783 14.686 38.7147 14.6786 38.7487 14.6644C38.7826 14.6501 38.8134 14.6293 38.8393 14.6031C38.8652 14.5769 38.8857 14.5459 38.8996 14.5118L40.3211 11.0835C40.526 10.5855 40.5791 10.0382 40.4739 9.51012C40.3688 8.98207 40.1099 8.49682 39.7299 8.11525L36.3859 4.77262C36.0058 4.38875 35.5195 4.12734 34.9895 4.02203C34.4595 3.91671 33.9101 3.97232 33.412 4.18169L24.7429 7.79046C24.6486 7.82902 24.5629 7.88598 24.4908 7.95801C24.4188 8.03004 24.3618 8.11569 24.3232 8.20998L24.0795 8.7964C23.8719 9.30163 23.6824 9.81588 23.5154 10.3346L22.5587 13.3029C22.5536 13.3167 22.5443 13.3286 22.5322 13.337C22.5201 13.3454 22.5057 13.3499 22.491 13.3499C22.4763 13.3499 22.4619 13.3454 22.4498 13.337C22.4377 13.3286 22.4284 13.3167 22.4233 13.3029L21.4711 10.3392C21.3041 9.81588 21.1146 9.29261 20.9025 8.78287L20.6633 8.20998C20.6247 8.11569 20.5678 8.03004 20.4957 7.95801C20.4236 7.88598 20.3379 7.82902 20.2436 7.79046L17.0395 6.46424L18.804 2.19686C18.9105 1.93882 19.0914 1.71827 19.3236 1.56324C19.5559 1.40822 19.829 1.32572 20.1082 1.32625H24.8693C25.1479 1.32602 25.4203 1.40869 25.6517 1.56374C25.8832 1.71878 26.0632 1.93918 26.1689 2.19686L27.595 5.63422C27.6089 5.66833 27.6293 5.69936 27.6552 5.72554C27.6811 5.75172 27.7119 5.77253 27.7459 5.78678C27.7799 5.80103 27.8163 5.80844 27.8531 5.80858C27.89 5.80872 27.9265 5.80158 27.9605 5.78759L28.642 5.5034C28.7112 5.47447 28.7662 5.41935 28.7949 5.35005C28.8237 5.28076 28.8238 5.20292 28.7954 5.1335L27.3784 1.70968C27.1765 1.20842 26.8302 0.778362 26.3835 0.474001C25.9368 0.169641 25.4098 0.00468076 24.8693 2.53463e-05H20.1173C19.5776 -0.00230884 19.0495 0.156627 18.6008 0.456432C18.1521 0.756238 17.8033 1.18323 17.5991 1.68261L14.0385 10.3301C13.962 10.5197 13.962 10.7315 14.0385 10.9211L14.4356 11.8729C14.6026 12.2563 14.7831 12.6397 14.9727 13.0142L16.3942 15.7839C16.4014 15.7973 16.4042 15.8126 16.4021 15.8277C16.4001 15.8428 16.3933 15.8568 16.3828 15.8679C16.3723 15.8789 16.3586 15.8863 16.3436 15.889C16.3286 15.8918 16.3132 15.8897 16.2994 15.8831L13.5331 14.4622C13.163 14.2727 12.7839 14.0968 12.4049 13.9299L11.4301 13.5284C11.3367 13.4883 11.2362 13.4677 11.1345 13.4677C11.0329 13.4677 10.9323 13.4883 10.8389 13.5284L7.65288 14.8411L5.88838 10.5782C5.78263 10.3208 5.75534 10.0379 5.80994 9.76502C5.86454 9.49214 5.99859 9.24148 6.19525 9.04451L9.5257 5.68384C9.72275 5.48726 9.97351 5.35326 10.2465 5.29869C10.5195 5.24411 10.8025 5.27139 11.0601 5.37709L14.4898 6.80256C14.5592 6.83099 14.6371 6.83082 14.7064 6.80209C14.7757 6.77336 14.8309 6.7184 14.8598 6.64919L15.1396 5.96803C15.1681 5.89861 15.1679 5.82077 15.1392 5.75148C15.1104 5.68219 15.0554 5.62707 14.9862 5.59813L11.5565 4.18169C11.0635 3.98114 10.5224 3.93023 10.0007 4.03533C9.47902 4.14043 8.99987 4.39687 8.62314 4.77262L5.27463 8.11525C4.89462 8.49682 4.63579 8.98207 4.53062 9.51012C4.42545 10.0382 4.47862 10.5855 4.68345 11.0835L8.2937 19.7535C8.37289 19.9432 8.5237 20.0939 8.71339 20.1731L9.29104 20.4121C9.80098 20.6196 10.3154 20.8091 10.8389 20.9805L13.7677 21.9504C13.7833 21.9544 13.797 21.9634 13.8069 21.976C13.8167 21.9887 13.822 22.0043 13.822 22.0203C13.822 22.0363 13.8167 22.0519 13.8069 22.0646C13.797 22.0772 13.7833 22.0862 13.7677 22.0902L10.8073 23.0375C10.2613 23.2135 9.71975 23.4119 9.18724 23.633L8.69535 23.836C8.50565 23.9151 8.35484 24.0659 8.27565 24.2555L6.92181 27.4718L2.65269 25.7035C2.3949 25.5978 2.17441 25.4179 2.01931 25.1865C1.8642 24.9551 1.78149 24.6829 1.78172 24.4043V19.6137C1.78238 19.3348 1.86539 19.0624 2.02033 18.8304C2.17527 18.5985 2.39525 18.4175 2.65269 18.31L6.09145 16.8891C6.16069 16.8601 6.21567 16.805 6.24441 16.7357C6.27316 16.6664 6.27333 16.5886 6.24489 16.5192L5.96509 15.838C5.93615 15.7688 5.881 15.7139 5.81168 15.6851C5.74236 15.6564 5.66449 15.6562 5.59504 15.6846L2.1608 17.1056C1.66543 17.3132 1.24302 17.6634 0.947303 18.1116C0.651582 18.5598 0.495909 19.0858 0.500082 19.6227V24.3773C0.496286 24.917 0.652397 25.4457 0.948736 25.8969C1.24507 26.348 1.66838 26.7014 2.16531 26.9124L10.8164 30.4896C11.006 30.5661 11.2179 30.5661 11.4075 30.4896L12.4274 30.0701C12.7885 29.9077 13.1495 29.7408 13.506 29.5604L16.2769 28.1394C16.2903 28.1322 16.3056 28.1295 16.3207 28.1315C16.3358 28.1335 16.3498 28.1403 16.3609 28.1508C16.3719 28.1613 16.3793 28.175 16.382 28.19C16.3848 28.205 16.3827 28.2204 16.3761 28.2342L14.9411 30.9723C14.7515 31.3377 14.58 31.7076 14.4131 32.082L14.0069 33.0699C13.9282 33.2606 13.9282 33.4747 14.0069 33.6654L15.3247 36.823L11.0646 38.6409C10.8077 38.7484 10.5246 38.7771 10.2514 38.7232C9.97815 38.6694 9.72711 38.5356 9.53021 38.3387L6.17268 34.9826C5.97615 34.7846 5.84225 34.5331 5.78768 34.2596C5.73311 33.9861 5.76028 33.7025 5.86581 33.4443L7.29186 30.007C7.3203 29.9375 7.32013 29.8597 7.29139 29.7904C7.26264 29.7211 7.20766 29.666 7.13842 29.6371L6.45699 29.3574C6.38754 29.329 6.30967 29.3291 6.24035 29.3579C6.17103 29.3866 6.11588 29.4415 6.08694 29.5108L4.66541 32.9391C4.46057 33.437 4.4074 33.9844 4.51257 34.5124C4.61774 35.0405 4.87657 35.5257 5.25658 35.9073L8.62314 39.2274C9.00525 39.6081 9.49149 39.8674 10.0207 39.9726C10.5499 40.0777 11.0983 40.024 11.5971 39.8183L20.2707 36.2095C20.4596 36.1292 20.61 35.9788 20.6904 35.79L20.9025 35.2758C21.1236 34.7435 21.3177 34.2067 21.4937 33.6563L22.4459 30.6971C22.451 30.6833 22.4602 30.6714 22.4723 30.663C22.4844 30.6546 22.4988 30.6501 22.5136 30.6501C22.5283 30.6501 22.5427 30.6546 22.5548 30.663C22.5669 30.6714 22.5761 30.6833 22.5813 30.6971L23.5154 33.6789C23.6914 34.2247 23.89 34.7615 24.1066 35.2893L24.3232 35.8081C24.4017 35.9966 24.5507 36.147 24.7384 36.2276L27.9515 37.5538L26.1825 41.8257C26.0766 42.0864 25.8948 42.3092 25.6606 42.4653C25.4264 42.6213 25.1507 42.7034 24.8693 42.7008H20.1082C19.829 42.7013 19.5559 42.6188 19.3236 42.4638C19.0914 42.3088 18.9105 42.0882 18.804 41.8302L17.378 38.3883C17.3641 38.3542 17.3437 38.3232 17.3178 38.297C17.2919 38.2708 17.261 38.25 17.2271 38.2358C17.1931 38.2215 17.1567 38.2141 17.1199 38.214C17.083 38.2138 17.0465 38.221 17.0124 38.235L16.331 38.5191C16.2618 38.5481 16.2068 38.6032 16.1781 38.6725C16.1493 38.7418 16.1491 38.8196 16.1776 38.8891L17.5991 42.3174C17.8033 42.8168 18.1521 43.2438 18.6008 43.5436C19.0495 43.8434 19.5776 44.0023 20.1173 44H24.8693C25.4089 44.0023 25.937 43.8434 26.3857 43.5436C26.8344 43.2438 27.1832 42.8168 27.3874 42.3174L30.9706 33.6789C31.0474 33.4878 31.0474 33.2745 30.9706 33.0834L30.5193 32.0324C30.3659 31.6805 30.1989 31.3332 30.0229 30.9904L28.6013 28.2161C28.5948 28.2024 28.5927 28.1869 28.5955 28.172C28.5982 28.157 28.6056 28.1433 28.6166 28.1328C28.6276 28.1223 28.6417 28.1155 28.6568 28.1135C28.6719 28.1114 28.6872 28.1142 28.7006 28.1214L31.467 29.5423C31.8596 29.7453 32.2612 29.9303 32.6674 30.1062L33.57 30.4761C33.7596 30.5526 33.9715 30.5526 34.1611 30.4761L37.3472 29.1589L39.1162 33.4263C39.2217 33.6845 39.2489 33.968 39.1943 34.2416C39.1398 34.5151 39.0059 34.7665 38.8093 34.9645L35.4518 38.3207C35.254 38.5176 35.0025 38.6518 34.7287 38.7064C34.4549 38.761 34.1711 38.7335 33.9129 38.6274L30.4742 37.2065C30.4405 37.1917 30.4041 37.1839 30.3673 37.1834C30.3305 37.1829 30.294 37.1898 30.2599 37.2037C30.2259 37.2176 30.1949 37.2382 30.1689 37.2642C30.1429 37.2902 30.1224 37.3212 30.1086 37.3553L29.8243 38.0365C29.7959 38.1059 29.796 38.1837 29.8248 38.253C29.8535 38.3223 29.9085 38.3774 29.9778 38.4064L33.4075 39.8228C33.9056 40.0322 34.455 40.0878 34.985 39.9825C35.515 39.8772 36.0013 39.6158 36.3814 39.2319L39.7254 35.8893C40.1054 35.5077 40.3643 35.0224 40.4694 34.4944C40.5746 33.9663 40.5214 33.419 40.3166 32.921L36.7064 24.251C36.6259 24.0622 36.4755 23.9118 36.2867 23.8314L35.7135 23.5969C35.1991 23.3849 34.6801 23.1954 34.1521 23.024L31.1917 22.0767C31.1762 22.0727 31.1624 22.0637 31.1526 22.051C31.1427 22.0384 31.1374 22.0228 31.1374 22.0068C31.1374 21.9907 31.1427 21.9752 31.1526 21.9625C31.1624 21.9499 31.1762 21.9408 31.1917 21.9368L34.1566 20.985C34.6801 20.8136 35.1946 20.6242 35.7 20.4212L36.2867 20.1776C36.4755 20.0972 36.6259 19.9468 36.7064 19.758L38.0602 16.5372L42.3293 18.301C42.5864 18.409 42.8061 18.5901 42.9609 18.8219C43.1158 19.0537 43.199 19.3259 43.2003 19.6047V24.3863C43.1993 24.6645 43.1161 24.9363 42.9612 25.1674C42.8062 25.3986 42.5864 25.5788 42.3293 25.6855L38.8906 27.1109C38.8564 27.1248 38.8254 27.1452 38.7992 27.1711C38.773 27.197 38.7522 27.2278 38.7379 27.2618C38.7237 27.2957 38.7163 27.3321 38.7161 27.369C38.716 27.4058 38.7231 27.4423 38.7371 27.4763ZM22.4233 15.6621C22.4273 15.6466 22.4363 15.6328 22.449 15.623C22.4616 15.6132 22.4772 15.6078 22.4933 15.6078C22.5093 15.6078 22.5249 15.6132 22.5375 15.623C22.5502 15.6328 22.5592 15.6466 22.5632 15.6621L23.0641 17.1552C23.2807 17.8183 23.5154 18.4724 23.7907 19.1175L25.3205 22.8841H19.6479L21.2094 19.1085C21.4756 18.4724 21.7148 17.8228 21.9314 17.1688L22.4233 15.6621ZM11.1142 29.195L8.13124 27.9635L9.37678 24.9547L15.8842 22.2481C15.9349 22.2275 15.9783 22.1922 16.0089 22.1468C16.0394 22.1014 16.0558 22.0479 16.0558 21.9932C16.0558 21.9385 16.0394 21.885 16.0089 21.8396C15.9783 21.7943 15.9349 21.759 15.8842 21.7384L9.37678 19.0318L8.13124 16.023L11.1142 14.7915L17.6488 17.4981C17.6993 17.5195 17.755 17.5254 17.8089 17.5149C17.8628 17.5045 17.9123 17.4782 17.9511 17.4394C17.9899 17.4006 18.0162 17.3511 18.0267 17.2973C18.0371 17.2434 18.0312 17.1877 18.0098 17.1372L15.3021 10.6098L16.5341 7.62356L19.5441 8.86858L21.8005 14.2817L16.5657 26.9124L11.1142 29.195ZM29.6844 33.3857L28.4479 36.3674L25.4424 35.1224L22.7347 28.6176C22.7141 28.5669 22.6788 28.5235 22.6334 28.493C22.588 28.4625 22.5345 28.4461 22.4797 28.4461C22.425 28.4461 22.3715 28.4625 22.3261 28.493C22.2807 28.5235 22.2454 28.5669 22.2247 28.6176L19.5171 35.1224L16.507 36.3629L15.275 33.3857L19.1064 24.2059H25.8756L29.6844 33.3857ZM35.6143 19.0634L29.1023 21.7699C29.0516 21.7906 29.0082 21.8258 28.9776 21.8712C28.9471 21.9166 28.9308 21.9701 28.9308 22.0248C28.9308 22.0795 28.9471 22.133 28.9776 22.1784C29.0082 22.2238 29.0516 22.2591 29.1023 22.2797L35.6143 24.9863L36.8553 27.9906L33.8949 29.1679L28.4479 26.9124L23.2221 14.2817L25.4785 8.86858L28.484 7.62356L29.7205 10.6098L27.0128 17.1372C26.9914 17.1877 26.9855 17.2434 26.996 17.2973C27.0064 17.3511 27.0327 17.4006 27.0715 17.4394C27.1103 17.4782 27.1599 17.5045 27.2137 17.5149C27.2676 17.5254 27.3234 17.5195 27.3739 17.4981L33.9084 14.7915L36.8914 16.023L35.6143 19.0634Z" fill="#EDE8E3"/>
<path d="M15.2351 0.697099C15.2355 0.652026 15.2254 0.607483 15.2055 0.567036C15.1856 0.526589 15.1565 0.491362 15.1205 0.464177C15.0845 0.436992 15.0427 0.418605 14.9983 0.410485C14.954 0.402365 14.9084 0.404739 14.8651 0.417418C14.0789 0.637002 13.3215 0.94893 12.6087 1.34668C12.5709 1.369 12.5388 1.39963 12.5146 1.43623C12.4905 1.47283 12.475 1.51445 12.4693 1.55793C12.4637 1.60141 12.468 1.6456 12.482 1.68716C12.496 1.72871 12.5192 1.76654 12.55 1.79777C12.8342 2.08362 13.1356 2.35177 13.4526 2.60073C13.7845 2.85125 14.1311 3.08172 14.4905 3.2909C14.5296 3.31896 14.5751 3.33682 14.6228 3.34284C14.6706 3.34886 14.7191 3.34285 14.7639 3.32537C14.8088 3.30789 14.8485 3.27949 14.8796 3.24275C14.9106 3.206 14.932 3.16208 14.9418 3.11498C15.0455 2.72042 15.1239 2.31963 15.1765 1.91506C15.2205 1.51062 15.2401 1.1039 15.2351 0.697099Z" fill="#EDE8E3"/>
<path d="M32.4326 42.2055C32.4632 42.237 32.4862 42.2751 32.4998 42.3169C32.5134 42.3586 32.5173 42.4029 32.5112 42.4464C32.5052 42.4899 32.4892 42.5315 32.4646 42.5679C32.4401 42.6043 32.4075 42.6346 32.3694 42.6566C32.0138 42.8538 31.6477 43.0315 31.2728 43.1889C30.8959 43.3439 30.5101 43.4765 30.1175 43.5858C30.0745 43.5987 30.029 43.6011 29.9849 43.593C29.9407 43.5849 29.8991 43.5665 29.8634 43.5392C29.8277 43.5119 29.799 43.4765 29.7797 43.436C29.7603 43.3955 29.7508 43.351 29.752 43.3061C29.756 42.8973 29.7846 42.4891 29.8377 42.0837C29.891 41.681 29.9678 41.2819 30.0679 40.8883C30.079 40.8447 30.1002 40.8043 30.1298 40.7703C30.1593 40.7363 30.1964 40.7097 30.238 40.6926C30.2797 40.6756 30.3248 40.6684 30.3696 40.6719C30.4145 40.6753 30.458 40.6891 30.4966 40.7123C30.8482 40.9169 31.1859 41.1444 31.5075 41.3935C31.8324 41.6448 32.1413 41.9159 32.4326 42.2055Z" fill="#EDE8E3"/>
<path d="M43.8219 14.7352C43.8674 14.7363 43.9125 14.7267 43.9535 14.7071C43.9946 14.6875 44.0304 14.6585 44.0581 14.6225C44.0859 14.5864 44.1046 14.5444 44.113 14.4997C44.1214 14.455 44.1191 14.4089 44.1062 14.3653C43.8877 13.5784 43.574 12.8209 43.1721 12.1098C43.1498 12.0721 43.1191 12.0399 43.0825 12.0158C43.0459 11.9917 43.0042 11.9762 42.9608 11.9705C42.9173 11.9649 42.8731 11.9692 42.8315 11.9832C42.7899 11.9972 42.7521 12.0204 42.7208 12.0512C42.4374 12.3363 42.1707 12.6375 41.922 12.9534C41.6749 13.2763 41.4473 13.6137 41.2406 13.9638C41.2174 14.0024 41.2035 14.0459 41.2001 14.0907C41.1967 14.1356 41.2038 14.1807 41.2209 14.2223C41.238 14.2639 41.2646 14.301 41.2986 14.3305C41.3326 14.3601 41.373 14.3812 41.4166 14.3924C41.8098 14.4961 42.2093 14.5745 42.6125 14.627C43.0131 14.6871 43.417 14.7232 43.8219 14.7352Z" fill="#EDE8E3"/>
<path d="M2.30591 31.9361C2.27435 31.9667 2.23624 31.9897 2.19446 32.0033C2.15269 32.0169 2.10835 32.0208 2.06483 32.0147C2.02131 32.0086 1.97976 31.9927 1.94333 31.9681C1.9069 31.9436 1.87656 31.911 1.85463 31.873C1.65377 31.5194 1.4759 31.1532 1.32211 30.7768C1.16552 30.4017 1.03141 30.0176 0.920474 29.6265C0.908661 29.5829 0.907074 29.5372 0.915836 29.4929C0.924598 29.4486 0.94347 29.407 0.970986 29.3712C0.998502 29.3354 1.03392 29.3064 1.07447 29.2865C1.11502 29.2667 1.15962 29.2564 1.20478 29.2566C1.61229 29.2606 2.01918 29.2892 2.42324 29.3423C2.82753 29.3955 3.22835 29.4723 3.62365 29.5724C3.66727 29.5835 3.70768 29.6047 3.74166 29.6342C3.77564 29.6637 3.80224 29.7008 3.81934 29.7424C3.83644 29.7841 3.84356 29.8291 3.84014 29.874C3.83673 29.9189 3.82285 29.9623 3.79964 30.0009C3.38254 30.7044 2.8809 31.3543 2.30591 31.9361Z" fill="#EDE8E3"/>
<path d="M32.4814 1.67589C32.5122 1.64466 32.5354 1.60683 32.5494 1.56528C32.5634 1.52372 32.5677 1.47953 32.5621 1.43605C32.5564 1.39257 32.5409 1.35095 32.5168 1.31435C32.4926 1.27775 32.4605 1.24712 32.4227 1.2248C31.71 0.82587 30.9526 0.512445 30.1663 0.291028C30.123 0.279077 30.0774 0.277412 30.0333 0.286166C29.9892 0.294921 29.9477 0.313853 29.9122 0.341454C29.8767 0.369055 29.8482 0.404561 29.8288 0.445146C29.8095 0.48573 29.7999 0.53027 29.8008 0.575217C29.8027 0.982641 29.8313 1.3895 29.8865 1.79318C29.9398 2.19581 30.0166 2.59496 30.1167 2.98858C30.1269 3.03545 30.1484 3.07909 30.1794 3.11571C30.2104 3.15232 30.2498 3.18078 30.2944 3.19859C30.3389 3.2164 30.3872 3.22301 30.4349 3.21786C30.4826 3.21271 30.5283 3.19594 30.568 3.16902C30.918 2.96029 31.2555 2.73135 31.5788 2.48336C31.897 2.23414 32.1985 1.96441 32.4814 1.67589Z" fill="#EDE8E3"/>
<path d="M15.1799 43.4322C15.1801 43.4773 15.1698 43.5219 15.15 43.5624C15.1301 43.603 15.1011 43.6384 15.0653 43.6659C15.0295 43.6934 14.9878 43.7123 14.9435 43.721C14.8992 43.7298 14.8534 43.7282 14.8099 43.7164C14.4184 43.6062 14.0341 43.4722 13.6591 43.3149C13.2825 43.1612 12.9162 42.9834 12.5625 42.7826C12.5244 42.7607 12.4918 42.7303 12.4673 42.6939C12.4427 42.6575 12.4267 42.616 12.4206 42.5725C12.4145 42.529 12.4185 42.4847 12.4321 42.4429C12.4457 42.4011 12.4687 42.363 12.4993 42.3315C12.7844 42.0467 13.0858 41.7786 13.4019 41.5286C13.726 41.283 14.0635 41.0556 14.4127 40.8474C14.4521 40.8205 14.4975 40.8036 14.5449 40.7982C14.5923 40.7927 14.6404 40.799 14.6848 40.8163C14.7293 40.8336 14.7688 40.8616 14.8001 40.8976C14.8313 40.9337 14.8532 40.9769 14.864 41.0233C14.9641 41.4185 15.0409 41.8191 15.0942 42.2232C15.1467 42.6242 15.1754 43.0279 15.1799 43.4322Z" fill="#EDE8E3"/>
<path d="M42.8252 31.99C42.8568 32.0206 42.8949 32.0436 42.9367 32.0572C42.9784 32.0708 43.0228 32.0747 43.0663 32.0687C43.1098 32.0626 43.1514 32.0466 43.1878 32.0221C43.2242 31.9975 43.2546 31.9649 43.2765 31.9269C43.6765 31.2154 43.9886 30.458 44.2061 29.6714C44.219 29.6284 44.2215 29.5829 44.2133 29.5388C44.2052 29.4946 44.1868 29.453 44.1595 29.4174C44.1322 29.3817 44.0968 29.353 44.0563 29.3337C44.0158 29.3143 43.9712 29.3048 43.9263 29.306C43.5187 29.3078 43.1117 29.3364 42.7079 29.3917C42.3036 29.4449 41.9028 29.5217 41.5075 29.6218C41.4603 29.6315 41.4164 29.6529 41.3796 29.684C41.3429 29.715 41.3145 29.7548 41.297 29.7996C41.2795 29.8444 41.2735 29.8929 41.2795 29.9406C41.2855 29.9883 41.3034 30.0338 41.3315 30.0729C41.7458 30.7759 42.2444 31.4258 42.8162 32.0081L42.8252 31.99Z" fill="#EDE8E3"/>
<path d="M1.04984 14.6911C1.00437 14.6922 0.959274 14.6826 0.918229 14.663C0.877183 14.6434 0.841348 14.6144 0.813637 14.5784C0.785927 14.5423 0.767126 14.5002 0.758766 14.4556C0.750407 14.4109 0.752722 14.3648 0.765528 14.3212C0.874913 13.9302 1.00753 13.5461 1.16266 13.1709C1.31797 12.7944 1.49735 12.4282 1.69968 12.0747C1.72162 12.0367 1.75196 12.0041 1.78838 11.9796C1.82481 11.955 1.86637 11.9391 1.90989 11.933C1.95341 11.9269 1.99774 11.9308 2.03952 11.9444C2.08129 11.958 2.11941 11.981 2.15096 12.0116C2.43534 12.2958 2.70209 12.5971 2.94973 12.9138C3.20905 13.2417 3.44577 13.5868 3.65824 13.9468C3.68145 13.9854 3.69532 14.0288 3.69874 14.0737C3.70216 14.1186 3.69503 14.1636 3.67793 14.2053C3.66084 14.2469 3.63423 14.284 3.60026 14.3135C3.56628 14.343 3.52587 14.3642 3.48224 14.3753C3.08846 14.4754 2.68914 14.5522 2.28635 14.6054C1.8763 14.659 1.46337 14.6877 1.04984 14.6911Z" fill="#EDE8E3"/>
</svg>
