<svg width="170" height="43" viewBox="0 0 170 43" fill="none" xmlns="http://www.w3.org/2000/svg">
<g clip-path="url(#clip0_13_1229)">
<path d="M42.9324 31.9844C45.4013 31.9844 46.5967 33.4157 46.5967 35.4008C46.5967 37.3859 45.3953 38.8231 42.9324 38.8231H40.4875V31.9844H42.9324ZM42.9324 32.9975H41.6229V37.8041H42.9204C44.5724 37.8041 45.4374 36.9323 45.4374 35.4008C45.4374 33.8693 44.5724 32.9857 42.9204 32.9857L42.9324 32.9975Z" fill="white"/>
<path d="M53.9856 31.9844V38.8231H52.8623V31.9844H53.9856Z" fill="white"/>
<path d="M59.8787 38.8231L62.8221 31.9844H64.0716L67.0091 38.8231H65.8076L65.2069 37.3446H61.7108L61.1101 38.8231H59.8787ZM62.0893 36.3668H64.7985L63.597 33.4216C63.555 33.3156 63.5189 33.2096 63.4649 33.0447C63.4168 33.2096 63.3748 33.3156 63.3387 33.4216L62.0893 36.3668Z" fill="white"/>
<path d="M80.2484 31.9844V38.8231H79.113V34.0342L76.8904 37.2798H76.2176L74.013 34.0225V38.8231H72.8777V31.9844H73.9049L76.554 35.9015L79.2031 31.9844H80.2484Z" fill="white"/>
<path d="M90.142 31.8553C90.8519 31.8681 91.5421 32.0862 92.1261 32.4822C92.71 32.8782 93.1617 33.4345 93.4244 34.0814C93.6871 34.7282 93.7491 35.4367 93.6027 36.1179C93.4562 36.7992 93.1078 37.4228 92.6012 37.9107C92.0947 38.3985 91.4524 38.7287 90.7551 38.8599C90.0578 38.9911 89.3366 38.9174 88.6818 38.6481C88.0271 38.3788 87.468 37.9259 87.0748 37.3462C86.6816 36.7665 86.4718 36.0858 86.4717 35.3896C86.4524 34.9148 86.5347 34.4414 86.7132 33.9997C86.8918 33.5581 87.1626 33.1579 87.5083 32.825C87.854 32.4922 88.2669 32.2339 88.7205 32.0669C89.1741 31.8999 89.6583 31.8278 90.142 31.8553ZM90.142 32.9038C89.6351 32.8956 89.1372 33.0356 88.7117 33.3059C88.2863 33.5762 87.9525 33.9647 87.753 34.4217C87.5535 34.8787 87.4972 35.3836 87.5914 35.872C87.6856 36.3605 87.926 36.8104 88.2819 37.1644C88.6378 37.5184 89.0931 37.7605 89.5899 37.8599C90.0866 37.9592 90.6023 37.9112 91.0712 37.7221C91.54 37.533 91.9408 37.2113 92.2225 36.798C92.5042 36.3847 92.6541 35.8985 92.653 35.4013C92.6736 35.0711 92.623 34.7403 92.5046 34.4305C92.3862 34.1207 92.2026 33.8388 91.9657 33.6032C91.7289 33.3676 91.444 33.1836 91.1298 33.0631C90.8156 32.9426 90.479 32.8883 90.142 32.9038Z" fill="white"/>
<path d="M100.036 38.8231V31.9844H101.099L104.853 36.9853C104.853 36.7497 104.853 36.4846 104.853 36.2314V31.9844H105.989V38.8231H104.919L101.165 33.8163C101.165 34.0519 101.165 34.317 101.165 34.5585V38.8231H100.036Z" fill="white"/>
<path d="M115.095 31.9844C117.564 31.9844 118.76 33.4157 118.76 35.4008C118.76 37.3859 117.558 38.8231 115.095 38.8231H112.656V31.9844H115.095ZM115.095 32.9975H113.804V37.8041H115.095C116.753 37.8041 117.618 36.9323 117.618 35.4008C117.618 33.8693 116.741 32.9857 115.083 32.9857L115.095 32.9975Z" fill="white"/>
<path d="M127.098 31.8558C127.859 31.8468 128.611 32.025 129.284 32.3742V33.4403C128.659 33.0468 127.93 32.842 127.188 32.8513C126.341 32.8513 125.806 33.0928 125.806 33.6818C125.806 35.1544 129.789 34.5595 129.789 36.9981C129.789 38.4354 128.545 38.9361 127.152 38.9243C126.289 38.94 125.436 38.7371 124.677 38.3352V37.2396C125.394 37.688 126.229 37.9233 127.08 37.917C127.981 37.917 128.647 37.7109 128.647 37.0629C128.647 35.4843 124.659 36.1263 124.659 33.7054C124.647 32.4625 125.788 31.8558 127.098 31.8558Z" fill="white"/>
<path d="M40.4696 3.72852H35.0332C34.9759 3.72852 34.9209 3.75086 34.8803 3.79062C34.8397 3.83039 34.817 3.88433 34.817 3.94057V22.9077C34.8185 22.9629 34.842 23.0153 34.8824 23.0538C34.9228 23.0924 34.9769 23.1139 35.0332 23.1139H40.4696C46.8191 23.1139 51.1982 18.8256 51.1982 13.4241C51.1982 8.02262 46.8191 3.72852 40.4696 3.72852ZM40.4696 21.7296H37.0756V5.11276H40.4696C45.2753 5.11276 48.8014 8.57632 48.8014 13.4241C48.8014 18.2719 45.2693 21.7296 40.4696 21.7296Z" fill="white"/>
<path d="M96.1491 3.72852H94.6533C94.5707 3.72924 94.4896 3.75007 94.4173 3.78914C94.3449 3.82821 94.2836 3.8843 94.2388 3.95235L85.901 17.0232H85.7629L77.4311 3.95235C77.3872 3.88476 77.327 3.82891 77.2556 3.78983C77.1843 3.75076 77.1043 3.72969 77.0226 3.72852H75.3887C75.3323 3.73005 75.2789 3.75307 75.2396 3.79267C75.2003 3.83228 75.1784 3.88534 75.1784 3.94057V22.9077C75.1784 22.9624 75.2006 23.0148 75.24 23.0535C75.2794 23.0921 75.3329 23.1139 75.3887 23.1139H76.3738C76.4301 23.1139 76.4843 23.0924 76.5246 23.0538C76.565 23.0153 76.5885 22.9629 76.5901 22.9077V7.06838H76.7282L84.9879 19.9684C85.0102 20.005 85.0419 20.0351 85.0799 20.0558C85.1179 20.0765 85.1608 20.087 85.2042 20.0862H85.4865C85.53 20.087 85.5729 20.0765 85.6108 20.0558C85.6488 20.0351 85.6805 20.005 85.7028 19.9684L93.9565 7.06838H94.1007V22.9254C94.1022 22.9806 94.1257 23.033 94.1661 23.0715C94.2065 23.11 94.2606 23.1316 94.3169 23.1315H96.1491C96.2048 23.1315 96.2583 23.1098 96.2977 23.0711C96.3372 23.0325 96.3593 22.98 96.3593 22.9254V3.95824C96.3618 3.92943 96.3582 3.90043 96.3488 3.87303C96.3395 3.84562 96.3245 3.82039 96.3048 3.79887C96.2851 3.77736 96.2611 3.76002 96.2343 3.74792C96.2076 3.73582 96.1785 3.72922 96.1491 3.72852Z" fill="white"/>
<path d="M110.254 3.95827C110.225 3.89053 110.177 3.83256 110.115 3.79168C110.053 3.7508 109.98 3.72883 109.905 3.72854H108.578C108.502 3.72766 108.428 3.74908 108.365 3.79004C108.301 3.83099 108.252 3.8896 108.223 3.95827L100.084 22.8959C100.074 22.92 100.07 22.9461 100.073 22.9719C100.076 22.9977 100.085 23.0224 100.1 23.0439C100.115 23.0654 100.135 23.083 100.158 23.0952C100.181 23.1074 100.207 23.1138 100.234 23.1139H101.435C101.505 23.1139 101.574 23.0938 101.633 23.0562C101.691 23.0185 101.738 22.9649 101.766 22.9018L103.79 18.1306H113.816L115.846 22.9018C115.873 22.9649 115.918 23.0187 115.975 23.0565C116.033 23.0943 116.101 23.1143 116.171 23.1139H118.231C118.258 23.1154 118.285 23.11 118.309 23.0982C118.333 23.0864 118.354 23.0687 118.369 23.0467C118.384 23.0248 118.393 22.9993 118.396 22.9729C118.398 22.9465 118.393 22.9199 118.381 22.8959L110.254 3.95827ZM104.367 16.7463L108.728 6.47936H108.866L113.245 16.7287L104.367 16.7463Z" fill="white"/>
<path d="M137.724 3.72852H136.739C136.682 3.72852 136.627 3.75086 136.586 3.79062C136.545 3.83039 136.523 3.88433 136.523 3.94057V20.0685H136.36L124.346 3.87578C124.314 3.83045 124.271 3.79343 124.22 3.76781C124.17 3.74219 124.115 3.72872 124.058 3.72852H122.334C122.277 3.72852 122.222 3.75086 122.181 3.79062C122.14 3.83039 122.118 3.88433 122.118 3.94057V22.9077C122.119 22.9629 122.143 23.0153 122.183 23.0538C122.223 23.0924 122.278 23.1139 122.334 23.1139H123.319C123.375 23.1139 123.428 23.0921 123.468 23.0535C123.507 23.0148 123.529 22.9624 123.529 22.9077V6.77386H123.674L135.688 22.9725C135.721 23.0164 135.765 23.052 135.815 23.0765C135.865 23.1011 135.92 23.1139 135.976 23.1139H137.7C137.756 23.1139 137.809 23.0921 137.849 23.0535C137.888 23.0148 137.91 22.9624 137.91 22.9077V3.94057C137.911 3.88908 137.892 3.83916 137.858 3.80014C137.824 3.76112 137.776 3.73567 137.724 3.72852Z" fill="white"/>
<path d="M157.295 3.72852H141.622C141.594 3.7285 141.567 3.73402 141.541 3.74475C141.515 3.75548 141.491 3.77119 141.472 3.79096C141.452 3.81074 141.437 3.83417 141.427 3.85987C141.416 3.88556 141.411 3.91301 141.412 3.94057V4.9066C141.412 4.96128 141.434 5.01371 141.474 5.05238C141.513 5.09104 141.567 5.11276 141.622 5.11276H148.326V22.9077C148.328 22.9629 148.351 23.0153 148.392 23.0538C148.432 23.0924 148.486 23.1139 148.543 23.1139H150.375C150.431 23.1139 150.485 23.0924 150.526 23.0538C150.566 23.0153 150.589 22.9629 150.591 22.9077V5.11276H157.295C157.323 5.11276 157.35 5.10742 157.375 5.09706C157.401 5.0867 157.424 5.07152 157.444 5.05238C157.463 5.03323 157.479 5.01051 157.489 4.98549C157.5 4.96048 157.505 4.93367 157.505 4.9066V3.94057C157.506 3.91301 157.501 3.88556 157.491 3.85987C157.481 3.83417 157.465 3.81074 157.446 3.79096C157.426 3.77119 157.403 3.75548 157.377 3.74475C157.351 3.73402 157.323 3.7285 157.295 3.72852Z" fill="white"/>
<path d="M63.3144 3.95827C63.2856 3.8896 63.2364 3.83099 63.1732 3.79004C63.11 3.74908 63.0358 3.72766 62.96 3.72854H61.6325C61.5578 3.72883 61.4848 3.7508 61.4228 3.79168C61.3608 3.83256 61.3125 3.89053 61.2841 3.95827L53.1445 22.8959C53.133 22.9199 53.1281 22.9465 53.1302 22.9729C53.1323 22.9993 53.1413 23.0248 53.1565 23.0467C53.1716 23.0687 53.1923 23.0864 53.2165 23.0982C53.2407 23.11 53.2677 23.1154 53.2947 23.1139H54.4961C54.5655 23.1143 54.6335 23.0943 54.6913 23.0565C54.7491 23.0187 54.7941 22.9649 54.8205 22.9018L56.8508 18.1306H66.8766L68.901 22.9018C68.9291 22.9649 68.9753 23.0185 69.034 23.0562C69.0926 23.0938 69.1613 23.1139 69.2314 23.1139H71.2918C71.3183 23.1138 71.3443 23.1074 71.3676 23.0952C71.391 23.083 71.4109 23.0654 71.4257 23.0439C71.4406 23.0224 71.4498 22.9977 71.4526 22.9719C71.4554 22.9461 71.4518 22.92 71.442 22.8959L63.3144 3.95827ZM57.4275 16.7463L61.8067 6.49703H61.9448L66.324 16.7463H57.4275Z" fill="white"/>
<path d="M22.953 3.95827C22.9245 3.89053 22.8762 3.83256 22.8142 3.79168C22.7522 3.7508 22.6793 3.72883 22.6046 3.72854H21.277C21.2013 3.72766 21.127 3.74908 21.0638 3.79004C21.0006 3.83099 20.9514 3.8896 20.9226 3.95827L12.783 22.8959C12.7732 22.92 12.7696 22.9461 12.7724 22.9719C12.7753 22.9977 12.7845 23.0224 12.7993 23.0439C12.8141 23.0654 12.834 23.083 12.8574 23.0952C12.8807 23.1074 12.9067 23.1138 12.9332 23.1139H14.1346C14.2047 23.1139 14.2734 23.0938 14.3321 23.0562C14.3907 23.0185 14.4369 22.9649 14.465 22.9018L16.4894 18.1306H26.5272L28.5576 22.9018C28.5839 22.9649 28.6289 23.0187 28.6867 23.0565C28.7445 23.0943 28.8125 23.1143 28.882 23.1139H30.9424C30.9694 23.1154 30.9963 23.11 31.0205 23.0982C31.0447 23.0864 31.0654 23.0687 31.0806 23.0467C31.0957 23.0248 31.1048 22.9993 31.1069 22.9729C31.109 22.9465 31.104 22.9199 31.0926 22.8959L22.953 3.95827ZM17.0661 16.7463L21.4452 6.47936H21.5834L25.9625 16.7287L17.0661 16.7463Z" fill="white"/>
</g>
<defs>
<clipPath id="clip0_13_1229">
<rect width="170" height="43" fill="white"/>
</clipPath>
</defs>
</svg>
