<svg width="212" height="212" viewBox="0 0 212 212" fill="none" xmlns="http://www.w3.org/2000/svg">
<path d="M183.799 132.074L185.144 135.369C185.283 135.702 185.548 135.966 185.881 136.104C186.214 136.243 186.589 136.243 186.923 136.107L203.409 129.276C205.81 128.295 207.863 126.619 209.305 124.464C210.747 122.308 211.511 119.77 211.5 117.177V94.3228C211.511 91.7297 210.747 89.1923 209.305 87.0365C207.863 84.8806 205.81 83.2046 203.409 82.2235L161.825 65.0286C161.376 64.8359 160.892 64.7365 160.404 64.7365C159.915 64.7365 159.432 64.8359 158.983 65.0286L154.644 66.8283C152.714 67.674 150.783 68.5413 148.918 69.5171L135.62 76.3473C135.554 76.388 135.476 76.4051 135.398 76.396C135.321 76.3868 135.249 76.3518 135.194 76.2968C135.139 76.2417 135.104 76.1696 135.094 76.0923C135.085 76.0149 135.102 75.9367 135.143 75.8703L141.976 62.5567C142.887 60.8003 143.733 59.0006 144.514 57.1792L146.467 52.4956C146.834 51.5845 146.834 50.5662 146.467 49.6551L140.132 34.3466L160.632 25.8467C161.873 25.3368 163.237 25.2047 164.553 25.467C165.869 25.7294 167.078 26.3744 168.029 27.3212L184.168 43.4753C185.118 44.4189 185.766 45.624 186.028 46.9369C186.291 48.2499 186.157 49.6113 185.643 50.8477L178.81 67.3704C178.673 67.7041 178.674 68.0782 178.812 68.4113C178.95 68.7444 179.214 69.0094 179.547 69.1484L182.823 70.4928C182.986 70.5601 183.162 70.5944 183.339 70.5937C183.516 70.593 183.691 70.5574 183.854 70.4889C184.018 70.4204 184.166 70.3204 184.29 70.1945C184.415 70.0687 184.513 69.9195 184.58 69.7556L191.413 53.2762C192.397 50.8826 192.653 48.2516 192.148 45.7134C191.642 43.1752 190.398 40.8427 188.571 39.0085L172.497 22.9411C170.67 21.0959 168.332 19.8394 165.785 19.3331C163.237 18.8269 160.596 19.0942 158.202 20.1006L116.531 37.4473C116.078 37.6327 115.666 37.9065 115.32 38.2527C114.973 38.5989 114.699 39.0107 114.514 39.4639L113.342 42.2827C112.345 44.7113 111.434 47.1832 110.631 49.6768L106.032 63.9444C106.007 64.0108 105.963 64.0681 105.905 64.1085C105.847 64.149 105.778 64.1706 105.707 64.1706C105.636 64.1706 105.567 64.149 105.509 64.1085C105.45 64.0681 105.406 64.0108 105.381 63.9444L100.804 49.6984C100.002 47.1832 99.0906 44.6679 98.0711 42.2177L96.9214 39.4639C96.7359 39.0107 96.4621 38.5989 96.1157 38.2527C95.7693 37.9065 95.3574 37.6327 94.904 37.4473L79.5025 31.0724L87.9842 10.5599C88.4961 9.31957 89.3655 8.25941 90.4818 7.51423C91.5981 6.76906 92.9109 6.37252 94.2532 6.37503H117.139C118.478 6.37394 119.787 6.77133 120.9 7.5166C122.012 8.26187 122.878 9.32129 123.386 10.5599L130.241 27.0827C130.307 27.2466 130.406 27.3958 130.53 27.5216C130.655 27.6475 130.803 27.7475 130.966 27.816C131.129 27.8845 131.304 27.9201 131.482 27.9208C131.659 27.9214 131.834 27.8872 131.998 27.8199L135.273 26.4539C135.606 26.3148 135.87 26.0498 136.009 25.7167C136.147 25.3837 136.148 25.0095 136.011 24.6758L129.199 8.21813C128.229 5.80866 126.565 3.74144 124.417 2.27844C122.27 0.815434 119.737 0.0224995 117.139 0.000121835H94.2966C91.7024 -0.0110982 89.164 0.752876 87.0073 2.19399C84.8505 3.6351 83.1738 5.68759 82.1923 8.08802L65.0772 49.6551C64.7093 50.5662 64.7093 51.5845 65.0772 52.4956L66.9861 57.0708C67.7887 58.9139 68.6564 60.757 69.5675 62.5567L76.4005 75.8703C76.4351 75.9347 76.4484 76.0085 76.4386 76.081C76.4288 76.1534 76.3963 76.221 76.3457 76.2739C76.2952 76.3268 76.2292 76.3624 76.1573 76.3756C76.0853 76.3888 76.011 76.3789 75.945 76.3473L62.6476 69.5171C60.8689 68.6064 59.0467 67.7607 57.2246 66.9584L52.539 65.0286C52.0901 64.8359 51.6067 64.7365 51.1182 64.7365C50.6297 64.7365 50.1462 64.8359 49.6974 65.0286L34.3826 71.3385L25.9009 50.8477C25.3926 49.6103 25.2615 48.2503 25.5239 46.9387C25.7864 45.627 26.4307 44.4221 27.376 43.4753L43.3849 27.3212C44.3321 26.3763 45.5375 25.7322 46.8497 25.4698C48.1619 25.2075 49.5224 25.3386 50.7603 25.8467L67.2464 32.6987C67.5802 32.8353 67.9545 32.8345 68.2877 32.6964C68.6209 32.5583 68.886 32.2941 69.0251 31.9614L70.3701 28.6872C70.5068 28.3536 70.5059 27.9794 70.3678 27.6463C70.2296 27.3132 69.9653 27.0483 69.6325 26.9092L53.1464 20.1006C50.777 19.1366 48.176 18.8919 45.6682 19.3971C43.1605 19.9023 40.8573 21.135 39.0465 22.9411L22.9508 39.0085C21.1241 40.8427 19.88 43.1752 19.3745 45.7134C18.8689 48.2516 19.1245 50.8826 20.1091 53.2762L37.4629 94.9517C37.8436 95.8631 38.5685 96.5877 39.4803 96.9682L42.2569 98.1174C44.7081 99.1149 47.1811 100.026 49.6974 100.85L63.7756 105.511C63.8503 105.531 63.9164 105.574 63.9637 105.635C64.011 105.696 64.0366 105.771 64.0366 105.848C64.0366 105.925 64.011 105.999 63.9637 106.06C63.9164 106.121 63.8503 106.165 63.7756 106.184L49.5455 110.737C46.9207 111.583 44.3177 112.537 41.758 113.599L39.3935 114.575C38.4817 114.956 37.7568 115.68 37.3762 116.592L30.8685 132.052L10.3476 123.552C9.10845 123.044 8.0486 122.179 7.30303 121.067C6.55745 119.955 6.15989 118.646 6.16099 117.307V94.2795C6.16419 92.939 6.56319 91.6293 7.30796 90.5145C8.05272 89.3997 9.11012 88.5295 10.3476 88.013L26.8771 81.1827C27.2099 81.0436 27.4742 80.7787 27.6124 80.4456C27.7505 80.1125 27.7513 79.7383 27.6146 79.4047L26.2697 76.1305C26.1306 75.7978 25.8655 75.5336 25.5323 75.3955C25.1991 75.2574 24.8248 75.2566 24.4909 75.3933L7.98314 82.2235C5.60201 83.2214 3.57158 84.9046 2.15011 87.0591C0.728628 89.2136 -0.019663 91.7421 0.000392844 94.3228V117.177C-0.0178508 119.771 0.732543 122.313 2.15699 124.481C3.58144 126.65 5.6162 128.349 8.00484 129.363L49.5889 146.558C50.5004 146.926 51.5191 146.926 52.4306 146.558L57.333 144.542C59.0684 143.761 60.8038 142.959 62.5175 142.091L75.8365 135.261C75.901 135.227 75.9748 135.213 76.0473 135.223C76.1198 135.233 76.1873 135.265 76.2402 135.316C76.2932 135.366 76.3288 135.432 76.342 135.504C76.3552 135.576 76.3453 135.65 76.3137 135.716L69.4156 148.878C68.5045 150.635 67.6802 152.413 66.8776 154.212L64.9253 158.961C64.5469 159.878 64.5469 160.907 64.9253 161.823L71.2594 177.002L50.782 185.74C49.5471 186.257 48.1864 186.394 46.8731 186.136C45.5597 185.877 44.3531 185.233 43.4066 184.287L27.2676 168.155C26.3228 167.203 25.6792 165.994 25.4169 164.68C25.1546 163.365 25.2852 162.002 25.7925 160.761L32.6472 144.238C32.7839 143.904 32.7831 143.53 32.645 143.197C32.5068 142.864 32.2425 142.599 31.9097 142.46L28.6342 141.116C28.3004 140.979 27.926 140.98 27.5928 141.118C27.2596 141.256 26.9945 141.52 26.8554 141.853L20.0224 158.332C19.0377 160.726 18.7821 163.357 19.2877 165.895C19.7932 168.433 21.0374 170.766 22.864 172.6L39.0465 188.559C40.8832 190.389 43.2205 191.635 45.7642 192.141C48.3079 192.646 50.9443 192.388 53.3416 191.399L95.0341 174.053C95.942 173.666 96.6651 172.944 97.0515 172.036L98.0711 169.564C99.134 167.006 100.067 164.425 100.913 161.78L105.49 147.556C105.514 147.489 105.559 147.432 105.617 147.391C105.675 147.351 105.744 147.329 105.815 147.329C105.886 147.329 105.955 147.351 106.013 147.391C106.072 147.432 106.116 147.489 106.141 147.556L110.631 161.888C111.477 164.512 112.431 167.092 113.473 169.629L114.514 172.123C114.891 173.029 115.607 173.752 116.51 174.139L131.954 180.514L123.451 201.048C122.942 202.301 122.068 203.373 120.942 204.123C119.817 204.873 118.491 205.267 117.139 205.255H94.2532C92.9109 205.258 91.5981 204.861 90.4818 204.116C89.3655 203.371 88.4961 202.311 87.9842 201.07L81.1294 184.526C81.0627 184.362 80.9644 184.213 80.8399 184.087C80.7154 183.961 80.5673 183.861 80.404 183.792C80.2408 183.724 80.0656 183.688 79.8886 183.688C79.7116 183.687 79.5361 183.721 79.3723 183.789L76.0968 185.155C75.764 185.294 75.4997 185.559 75.3616 185.892C75.2234 186.225 75.2226 186.599 75.3593 186.933L82.1923 203.412C83.1738 205.812 84.8505 207.865 87.0073 209.306C89.164 210.747 91.7024 211.511 94.2966 211.5H117.139C119.733 211.511 122.271 210.747 124.428 209.306C126.585 207.865 128.261 205.812 129.243 203.412L146.467 161.888C146.836 160.97 146.836 159.944 146.467 159.026L144.297 153.974C143.56 152.283 142.757 150.613 141.911 148.965L135.078 135.63C135.046 135.564 135.037 135.489 135.05 135.417C135.063 135.346 135.099 135.28 135.152 135.229C135.204 135.179 135.272 135.146 135.345 135.136C135.417 135.126 135.491 135.14 135.555 135.174L148.853 142.005C150.74 142.98 152.67 143.869 154.623 144.715L158.961 146.493C159.873 146.861 160.891 146.861 161.803 146.493L177.118 140.162L185.621 160.674C186.128 161.915 186.259 163.278 185.997 164.593C185.734 165.908 185.091 167.116 184.146 168.068L168.007 184.2C167.056 185.147 165.847 185.792 164.531 186.055C163.215 186.317 161.851 186.185 160.61 185.675L144.08 178.845C143.918 178.774 143.744 178.736 143.567 178.734C143.39 178.732 143.214 178.765 143.051 178.831C142.887 178.898 142.738 178.997 142.613 179.122C142.488 179.247 142.39 179.396 142.323 179.56L140.957 182.834C140.82 183.168 140.821 183.542 140.959 183.875C141.097 184.208 141.361 184.473 141.694 184.612L158.18 191.421C160.575 192.427 163.215 192.695 165.763 192.189C168.311 191.682 170.648 190.426 172.475 188.581L188.549 172.513C190.376 170.679 191.62 168.347 192.126 165.808C192.631 163.27 192.376 160.639 191.391 158.245L174.037 116.57C173.651 115.662 172.928 114.94 172.02 114.553L169.265 113.426C166.792 112.407 164.298 111.496 161.76 110.672L147.529 106.119C147.455 106.1 147.389 106.056 147.341 105.995C147.294 105.934 147.268 105.86 147.268 105.783C147.268 105.705 147.294 105.631 147.341 105.57C147.389 105.509 147.455 105.466 147.529 105.446L161.781 100.871C164.298 100.047 166.77 99.1366 169.2 98.1608L172.02 96.9899C172.928 96.6036 173.651 95.8809 174.037 94.9734L180.545 79.4914L201.066 87.9696C202.302 88.4885 203.358 89.3593 204.102 90.4735C204.846 91.5878 205.246 92.8963 205.253 94.2361V117.221C205.248 118.558 204.848 119.864 204.103 120.975C203.358 122.086 202.302 122.953 201.066 123.465L184.536 130.317C184.372 130.384 184.223 130.482 184.097 130.607C183.971 130.731 183.871 130.879 183.803 131.042C183.734 131.206 183.699 131.381 183.698 131.558C183.697 131.735 183.732 131.91 183.799 132.074ZM105.381 75.2848C105.4 75.2102 105.444 75.1441 105.505 75.0968C105.566 75.0496 105.641 75.024 105.718 75.024C105.795 75.024 105.87 75.0496 105.93 75.0968C105.991 75.1441 106.035 75.2102 106.054 75.2848L108.462 82.462C109.503 85.6495 110.631 88.7936 111.954 91.8943L119.308 110H92.0406L99.5461 91.8509C100.826 88.7936 101.976 85.6712 103.017 82.5271L105.381 75.2848ZM51.0206 140.335L36.682 134.415L42.6691 119.953L73.9493 106.943C74.193 106.843 74.4016 106.674 74.5484 106.456C74.6953 106.237 74.7737 105.98 74.7737 105.717C74.7737 105.454 74.6953 105.197 74.5484 104.979C74.4016 104.761 74.193 104.591 73.9493 104.492L42.6691 91.4823L36.682 77.0195L51.0206 71.0999L82.431 84.11C82.6737 84.2131 82.9418 84.2414 83.2007 84.1911C83.4597 84.1409 83.6977 84.0144 83.8842 83.8279C84.0707 83.6415 84.1972 83.4036 84.2475 83.1448C84.2978 82.8859 84.2695 82.618 84.1663 82.3753L71.151 50.9994L77.073 36.645L91.5417 42.6297L102.388 68.6497L77.2248 129.363L51.0206 140.335ZM140.284 160.479L134.34 174.812L119.893 168.827L106.878 137.56C106.779 137.316 106.609 137.107 106.391 136.961C106.173 136.814 105.916 136.735 105.653 136.735C105.389 136.735 105.132 136.814 104.914 136.961C104.696 137.107 104.526 137.316 104.427 137.56L91.4115 168.827L76.9428 174.79L71.0208 160.479L89.4375 116.353H121.976L140.284 160.479ZM168.788 91.6341L137.486 104.644C137.242 104.743 137.034 104.913 136.887 105.131C136.74 105.349 136.661 105.606 136.661 105.869C136.661 106.132 136.74 106.389 136.887 106.607C137.034 106.826 137.242 106.995 137.486 107.094L168.788 120.104L174.753 134.546L160.523 140.205L134.34 129.363L109.221 68.6497L120.067 42.6297L134.514 36.645L140.458 50.9994L127.442 82.3753C127.339 82.618 127.311 82.8859 127.361 83.1448C127.411 83.4036 127.538 83.6415 127.725 83.8279C127.911 84.0144 128.149 84.1409 128.408 84.1911C128.667 84.2414 128.935 84.2131 129.178 84.11L160.588 71.0999L174.927 77.0195L168.788 91.6341Z" fill="white"/>
<path d="M70.8263 3.35255C70.8283 3.1359 70.7795 2.92178 70.6838 2.72737C70.5881 2.53295 70.4482 2.36361 70.2754 2.23294C70.1025 2.10227 69.9013 2.01388 69.6881 1.97485C69.4749 1.93582 69.2555 1.94723 69.0475 2.00818C65.2684 3.06368 61.6276 4.56306 58.2014 6.47496C58.02 6.58227 57.8653 6.72948 57.7493 6.90543C57.6332 7.08137 57.5588 7.28143 57.5316 7.49042C57.5044 7.6994 57.5252 7.91183 57.5924 8.11159C57.6596 8.31134 57.7714 8.49318 57.9194 8.6433C59.2853 10.0173 60.7341 11.3062 62.2579 12.5029C63.8533 13.7072 65.5194 14.815 67.2471 15.8205C67.435 15.9554 67.6536 16.0412 67.8831 16.0701C68.1127 16.0991 68.3458 16.0702 68.5613 15.9862C68.7768 15.9022 68.9679 15.7656 69.1172 15.589C69.2666 15.4124 69.3694 15.2013 69.4163 14.9749C69.915 13.0783 70.2917 11.1517 70.5443 9.20707C70.756 7.26301 70.8502 5.30795 70.8263 3.35255Z" fill="white"/>
<path d="M153.496 202.859C153.643 203.011 153.753 203.194 153.819 203.394C153.884 203.595 153.903 203.808 153.874 204.017C153.844 204.226 153.768 204.426 153.65 204.601C153.532 204.776 153.375 204.922 153.192 205.027C151.483 205.975 149.723 206.829 147.921 207.586C146.109 208.331 144.255 208.969 142.368 209.494C142.161 209.556 141.942 209.568 141.73 209.529C141.518 209.49 141.317 209.401 141.146 209.27C140.975 209.139 140.837 208.969 140.744 208.774C140.651 208.579 140.605 208.365 140.61 208.15C140.63 206.185 140.767 204.222 141.023 202.274C141.279 200.338 141.648 198.42 142.129 196.527C142.183 196.318 142.284 196.124 142.426 195.96C142.568 195.797 142.747 195.669 142.947 195.587C143.147 195.505 143.364 195.471 143.579 195.487C143.795 195.504 144.004 195.57 144.19 195.682C145.88 196.665 147.503 197.759 149.049 198.956C150.61 200.164 152.096 201.467 153.496 202.859Z" fill="white"/>
<path d="M208.245 70.8235C208.464 70.8289 208.68 70.7827 208.878 70.6885C209.075 70.5944 209.247 70.455 209.38 70.2817C209.514 70.1084 209.604 69.9061 209.644 69.6912C209.684 69.4764 209.673 69.2552 209.612 69.0455C208.561 65.2627 207.053 61.622 205.121 58.2038C205.014 58.0224 204.867 57.8678 204.691 57.7518C204.515 57.6358 204.315 57.5614 204.106 57.5343C203.896 57.5071 203.684 57.5279 203.484 57.595C203.284 57.6622 203.102 57.774 202.952 57.9219C201.59 59.2923 200.308 60.7402 199.113 62.2586C197.925 63.8107 196.831 65.4326 195.837 67.1157C195.726 67.301 195.659 67.5099 195.642 67.7256C195.626 67.9413 195.66 68.1579 195.742 68.358C195.825 68.5582 195.953 68.7363 196.116 68.8783C196.279 69.0202 196.473 69.122 196.683 69.1756C198.573 69.6743 200.493 70.0509 202.432 70.3031C204.357 70.592 206.299 70.7658 208.245 70.8235Z" fill="white"/>
<path d="M8.67794 153.513C8.52627 153.66 8.34306 153.77 8.14225 153.835C7.94144 153.901 7.72832 153.92 7.51913 153.891C7.30994 153.861 7.1102 153.785 6.9351 153.667C6.76001 153.548 6.61417 153.392 6.50871 153.209C5.54324 151.509 4.68824 149.749 3.94903 147.94C3.19632 146.137 2.55165 144.29 2.01842 142.411C1.96164 142.201 1.95401 141.981 1.99612 141.769C2.03824 141.556 2.12896 141.355 2.26122 141.183C2.39348 141.011 2.56372 140.872 2.75864 140.777C2.95357 140.681 3.16793 140.632 3.38502 140.633C5.34384 140.652 7.29972 140.79 9.24194 141.045C11.1853 141.3 13.1119 141.67 15.0121 142.15C15.2218 142.204 15.416 142.306 15.5794 142.448C15.7427 142.59 15.8705 142.768 15.9527 142.968C16.0349 143.168 16.0692 143.385 16.0527 143.6C16.0363 143.816 15.9696 144.025 15.8581 144.21C13.8531 147.592 11.4418 150.716 8.67794 153.513Z" fill="white"/>
<path d="M153.73 8.05343C153.878 7.90331 153.99 7.72147 154.057 7.52172C154.124 7.32196 154.145 7.10953 154.118 6.90054C154.091 6.69155 154.016 6.4915 153.9 6.31556C153.784 6.13961 153.63 5.9924 153.448 5.88509C150.022 3.96752 146.382 2.46094 142.602 1.39663C142.394 1.33918 142.175 1.33118 141.963 1.37326C141.751 1.41535 141.551 1.50635 141.381 1.63902C141.21 1.77169 141.073 1.94237 140.98 2.13745C140.887 2.33253 140.841 2.54662 140.845 2.76268C140.854 4.72109 140.992 6.67679 141.257 8.61719C141.513 10.5526 141.883 12.4712 142.363 14.3633C142.412 14.5885 142.516 14.7984 142.665 14.9743C142.814 15.1503 143.004 15.2871 143.218 15.3727C143.432 15.4583 143.664 15.4902 143.893 15.4654C144.122 15.4406 144.342 15.36 144.533 15.2306C146.215 14.2273 147.838 13.1268 149.392 11.9347C150.921 10.7368 152.37 9.44028 153.73 8.05343Z" fill="white"/>
<path d="M70.5664 208.782C70.5673 208.999 70.5181 209.214 70.4225 209.409C70.3269 209.603 70.1876 209.774 70.0155 209.906C69.8433 210.038 69.643 210.129 69.43 210.171C69.217 210.213 68.9972 210.205 68.7877 210.149C66.906 209.619 65.0587 208.975 63.2562 208.219C61.446 207.48 59.6853 206.625 57.9849 205.66C57.8019 205.555 57.6454 205.409 57.5272 205.234C57.4091 205.059 57.3324 204.859 57.3032 204.65C57.2739 204.441 57.2927 204.228 57.3582 204.027C57.4237 203.826 57.5342 203.643 57.6812 203.492C59.0519 202.123 60.5004 200.834 62.0197 199.632C63.5777 198.452 65.1999 197.359 66.8788 196.358C67.0682 196.229 67.2863 196.147 67.5142 196.121C67.7421 196.095 67.9729 196.125 68.1867 196.208C68.4004 196.292 68.5905 196.426 68.7406 196.599C68.8907 196.773 68.9962 196.98 69.048 197.204C69.5291 199.103 69.8985 201.029 70.1543 202.971C70.407 204.898 70.5447 206.839 70.5664 208.782Z" fill="white"/>
<path d="M203.451 153.778C203.603 153.925 203.786 154.036 203.987 154.101C204.188 154.167 204.401 154.185 204.61 154.156C204.819 154.127 205.019 154.05 205.194 153.932C205.369 153.814 205.515 153.658 205.62 153.475C207.543 150.055 209.044 146.414 210.089 142.633C210.151 142.426 210.163 142.208 210.124 141.996C210.085 141.783 209.996 141.583 209.865 141.412C209.734 141.241 209.564 141.103 209.369 141.01C209.174 140.917 208.96 140.871 208.744 140.877C206.785 140.885 204.828 141.023 202.887 141.289C200.944 141.544 199.017 141.914 197.117 142.395C196.891 142.441 196.679 142.544 196.503 142.693C196.326 142.843 196.189 143.034 196.105 143.249C196.021 143.465 195.992 143.698 196.021 143.927C196.05 144.156 196.136 144.375 196.271 144.563C198.263 147.942 200.659 151.066 203.408 153.865L203.451 153.778Z" fill="white"/>
<path d="M2.64446 70.6092C2.4259 70.6146 2.20914 70.5683 2.01184 70.4742C1.81454 70.38 1.64229 70.2406 1.50909 70.0673C1.37589 69.894 1.28552 69.6917 1.24533 69.4769C1.20515 69.2621 1.21628 69.0408 1.27784 68.8311C1.80363 66.9517 2.44108 65.1054 3.18677 63.3019C3.93335 61.492 4.79559 59.732 5.76815 58.0328C5.87361 57.8499 6.01943 57.6934 6.19452 57.5753C6.36962 57.4572 6.56938 57.3806 6.77857 57.3513C6.98776 57.322 7.20086 57.3409 7.40167 57.4063C7.60248 57.4718 7.78571 57.5823 7.93737 57.7292C9.30433 59.0953 10.5865 60.5436 11.7769 62.0659C13.0234 63.642 14.1613 65.301 15.1826 67.0314C15.2941 67.2168 15.3608 67.4257 15.3772 67.6414C15.3937 67.8571 15.3594 68.0737 15.2772 68.2738C15.1951 68.4739 15.0672 68.6521 14.9039 68.794C14.7405 68.936 14.5463 69.0378 14.3366 69.0913C12.4437 69.5721 10.5243 69.9413 8.58813 70.1972C6.61712 70.455 4.63222 70.5926 2.64446 70.6092Z" fill="white"/>
</svg>
