<svg width="100" height="100" viewBox="0 0 100 100" fill="none" xmlns="http://www.w3.org/2000/svg">
<path d="M86.9025 62.4462L87.5384 64.0045C87.6042 64.1618 87.7296 64.2867 87.8871 64.352C88.0446 64.4173 88.2216 64.4177 88.3795 64.3531L96.1743 61.1236C97.3097 60.6598 98.2806 59.8673 98.9622 58.848C99.6439 57.8287 100.005 56.629 99.9999 55.4029V44.5971C100.005 43.371 99.6439 42.1713 98.9622 41.152C98.2806 40.1327 97.3097 39.3402 96.1743 38.8764L76.5128 30.7464C76.3006 30.6553 76.072 30.6083 75.841 30.6083C75.6101 30.6083 75.3815 30.6553 75.1692 30.7464L73.118 31.5973C72.2051 31.9972 71.2923 32.4072 70.4103 32.8686L64.1231 36.098C64.0917 36.1173 64.0547 36.1254 64.0181 36.121C63.9815 36.1167 63.9474 36.1002 63.9214 36.0741C63.8953 36.0481 63.8788 36.014 63.8745 35.9774C63.8701 35.9409 63.8782 35.9039 63.8975 35.8725L67.1282 29.5776C67.559 28.7472 67.959 27.8963 68.3282 27.0351L69.2513 24.8206C69.4253 24.3898 69.4253 23.9084 69.2513 23.4776L66.2564 16.2395L75.9487 12.2207C76.5356 11.9796 77.1806 11.9171 77.8028 12.0412C78.425 12.1652 78.9967 12.4702 79.4462 12.9178L87.0769 20.5557C87.5262 21.0019 87.8325 21.5716 87.9567 22.1924C88.0809 22.8132 88.0174 23.4569 87.7743 24.0414L84.5436 31.8536C84.4789 32.0114 84.4793 32.1883 84.5446 32.3458C84.61 32.5033 84.7349 32.6285 84.8923 32.6943L86.441 33.3299C86.5184 33.3617 86.6014 33.3779 86.6851 33.3776C86.7688 33.3773 86.8516 33.3605 86.9288 33.3281C87.006 33.2957 87.076 33.2484 87.1349 33.1889C87.1937 33.1294 87.2402 33.0589 87.2718 32.9814L90.5025 25.1897C90.9681 24.058 91.0889 22.814 90.8499 21.6139C90.6109 20.4138 90.0226 19.311 89.1589 18.4438L81.559 10.8469C80.695 9.97442 79.5897 9.38031 78.3852 9.14097C77.1807 8.90162 75.9321 9.028 74.8 9.50384L55.0975 17.7056C54.8831 17.7932 54.6884 17.9227 54.5246 18.0864C54.3608 18.2501 54.2313 18.4448 54.1436 18.659L53.5898 19.9918C53.118 21.1401 52.6872 22.3088 52.3078 23.4878L50.1334 30.2338C50.1217 30.2652 50.1007 30.2922 50.0732 30.3114C50.0457 30.3305 50.013 30.3407 49.9795 30.3407C49.946 30.3407 49.9134 30.3305 49.8859 30.3114C49.8583 30.2922 49.8374 30.2652 49.8257 30.2338L47.6616 23.4981C47.2821 22.3088 46.8514 21.1196 46.3693 19.9611L45.8257 18.659C45.738 18.4448 45.6085 18.2501 45.4448 18.0864C45.281 17.9227 45.0862 17.7932 44.8719 17.7056L37.5898 14.6914L41.6001 4.99287C41.8422 4.40642 42.2532 3.90516 42.781 3.55283C43.3088 3.2005 43.9295 3.01301 44.5642 3.0142H55.3847C56.0179 3.01368 56.637 3.20157 57.163 3.55395C57.689 3.90632 58.0982 4.40723 58.3385 4.99287L61.5795 12.805C61.611 12.8826 61.6576 12.9531 61.7164 13.0126C61.7753 13.0721 61.8453 13.1194 61.9225 13.1518C61.9997 13.1842 62.0825 13.201 62.1662 13.2013C62.2499 13.2016 62.3329 13.1854 62.4103 13.1536L63.959 12.5077C64.1164 12.442 64.2413 12.3167 64.3066 12.1592C64.372 12.0017 64.3724 11.8248 64.3077 11.6671L61.0872 3.88564C60.6283 2.74641 59.8414 1.769 58.8262 1.07728C57.811 0.385548 56.6132 0.0106381 55.3847 5.76051e-05H44.5847C43.3581 -0.00524737 42.1579 0.35597 41.1382 1.03735C40.1184 1.71872 39.3257 2.68917 38.8616 3.82412L30.7693 23.4776C30.5954 23.9084 30.5954 24.3898 30.7693 24.8206L31.6719 26.9838C32.0514 27.8553 32.4616 28.7267 32.8924 29.5776L36.1232 35.8725C36.1395 35.903 36.1458 35.9378 36.1412 35.9721C36.1365 36.0064 36.1212 36.0383 36.0973 36.0633C36.0734 36.0883 36.0422 36.1051 36.0082 36.1114C35.9741 36.1176 35.939 36.1129 35.9078 36.098L29.6206 32.8686C28.7796 32.438 27.9181 32.0382 27.0565 31.6588L24.8412 30.7464C24.6289 30.6553 24.4003 30.6083 24.1694 30.6083C23.9384 30.6083 23.7098 30.6553 23.4976 30.7464L16.2566 33.7298L12.2463 24.0414C12.006 23.4564 11.944 22.8134 12.068 22.1932C12.1921 21.573 12.4968 21.0034 12.9437 20.5557L20.513 12.9178C20.9608 12.471 21.5307 12.1665 22.1511 12.0425C22.7716 11.9184 23.4148 11.9804 24.0001 12.2207L31.795 15.4604C31.9528 15.525 32.1298 15.5246 32.2873 15.4593C32.4449 15.394 32.5702 15.2691 32.636 15.1118L33.2719 13.5637C33.3365 13.4059 33.3361 13.229 33.2708 13.0715C33.2055 12.9141 33.0805 12.7888 32.9232 12.723L25.1283 9.50384C24.0081 9.04803 22.7782 8.93233 21.5926 9.1712C20.4069 9.41006 19.3179 9.9929 18.4617 10.8469L10.8514 18.4438C9.98777 19.311 9.39953 20.4138 9.1605 21.6139C8.92147 22.814 9.04231 24.058 9.50785 25.1897L17.713 44.8944C17.8929 45.3253 18.2357 45.668 18.6668 45.8479L19.9796 46.3912C21.1386 46.8628 22.3078 47.2934 23.4976 47.683L30.154 49.8872C30.1893 49.8963 30.2205 49.9168 30.2429 49.9456C30.2652 49.9743 30.2774 50.0097 30.2774 50.0461C30.2774 50.0826 30.2652 50.1179 30.2429 50.1467C30.2205 50.1755 30.1893 50.196 30.154 50.205L23.4258 52.358C22.1847 52.7578 20.954 53.2089 19.7437 53.7113L18.6258 54.1726C18.1947 54.3525 17.8519 54.6952 17.6719 55.1261L14.595 62.4359L4.89248 58.417C4.3066 58.1769 3.80549 57.7678 3.45297 57.242C3.10045 56.7162 2.91248 56.0974 2.913 55.4644V44.5766C2.91451 43.9428 3.10316 43.3235 3.4553 42.7965C3.80744 42.2694 4.30738 41.8579 4.89248 41.6137L12.7078 38.3843C12.8652 38.3185 12.9902 38.1932 13.0555 38.0357C13.1208 37.8783 13.1212 37.7014 13.0566 37.5436L12.4207 35.9955C12.3549 35.8382 12.2295 35.7133 12.072 35.648C11.9145 35.5827 11.7375 35.5823 11.5796 35.6469L3.77454 38.8764C2.64871 39.3482 1.68869 40.144 1.0166 41.1627C0.344505 42.1814 -0.00929694 43.3769 0.000185742 44.5971V55.4029C-0.00844009 56.6295 0.346356 57.8312 1.01985 58.8565C1.69335 59.8818 2.65541 60.685 3.78479 61.1646L23.4463 69.2946C23.8773 69.4685 24.3589 69.4685 24.7899 69.2946L27.1078 68.3412C27.9283 67.9721 28.7488 67.5928 29.5591 67.1827L35.8565 63.9532C35.887 63.9369 35.9219 63.9306 35.9562 63.9352C35.9904 63.9399 36.0224 63.9552 36.0474 63.9791C36.0724 64.003 36.0893 64.0342 36.0955 64.0682C36.1017 64.1022 36.0971 64.1373 36.0821 64.1685L32.8206 70.3916C32.3899 71.222 32.0001 72.0627 31.6206 72.9137L30.6975 75.1589C30.5186 75.5922 30.5186 76.0788 30.6975 76.5122L33.6924 83.6887L24.0104 87.8203C23.4265 88.0646 22.7832 88.1297 22.1622 88.0074C21.5412 87.885 20.9707 87.5808 20.5232 87.1334L12.8925 79.5058C12.4458 79.0558 12.1415 78.4844 12.0175 77.8627C11.8934 77.241 11.9552 76.5966 12.195 76.0098L15.436 68.1976C15.5007 68.0399 15.5003 67.863 15.435 67.7055C15.3696 67.548 15.2447 67.4227 15.0873 67.357L13.5386 66.7213C13.3808 66.6567 13.2038 66.6571 13.0463 66.7224C12.8887 66.7877 12.7634 66.9126 12.6976 67.0699L9.46683 74.8616C9.00129 75.9933 8.88045 77.2372 9.11947 78.4374C9.3585 79.6375 9.94675 80.7403 10.8104 81.6075L18.4617 89.1531C19.3301 90.0185 20.4352 90.6077 21.6379 90.8467C22.8406 91.0857 24.0871 90.9637 25.2206 90.4962L44.9334 82.2944C45.3627 82.1117 45.7045 81.77 45.8873 81.341L46.3693 80.1722C46.8719 78.9624 47.3129 77.7424 47.7129 76.4917L49.877 69.7662C49.8886 69.7348 49.9096 69.7078 49.9371 69.6886C49.9646 69.6695 49.9973 69.6593 50.0308 69.6593C50.0643 69.6593 50.097 69.6695 50.1245 69.6886C50.152 69.7078 50.173 69.7348 50.1847 69.7662L52.3078 76.5429C52.7078 77.7834 53.159 79.0034 53.6513 80.203L54.1436 81.382C54.3221 81.8104 54.6606 82.1524 55.0872 82.3354L62.3898 85.3496L58.3693 95.0584C58.1287 95.6508 57.7154 96.1573 57.1832 96.512C56.6509 96.8666 56.0243 97.0532 55.3847 97.0473H44.5642C43.9295 97.0485 43.3088 96.861 42.781 96.5087C42.2532 96.1563 41.8422 95.6551 41.6001 95.0686L38.3591 87.2462C38.3275 87.1687 38.281 87.0982 38.2222 87.0387C38.1633 86.9792 38.0933 86.9319 38.0161 86.8995C37.9389 86.8671 37.8561 86.8503 37.7724 86.8499C37.6887 86.8496 37.6057 86.8658 37.5283 86.8976L35.9796 87.5435C35.8222 87.6093 35.6973 87.7346 35.6319 87.892C35.5666 88.0495 35.5662 88.2264 35.6309 88.3842L38.8616 96.1759C39.3257 97.3108 40.1184 98.2813 41.1382 98.9626C42.1579 99.644 43.3581 100.005 44.5847 99.9999H55.3847C56.6112 100.005 57.8114 99.644 58.8312 98.9626C59.8509 98.2813 60.6437 97.3108 61.1077 96.1759L69.2513 76.5429C69.4259 76.1087 69.4259 75.6239 69.2513 75.1896L68.2257 72.8009C67.877 72.0012 67.4975 71.2118 67.0975 70.4326L63.8667 64.1275C63.8518 64.0963 63.8471 64.0612 63.8533 64.0272C63.8596 63.9932 63.8764 63.962 63.9014 63.9381C63.9265 63.9142 63.9584 63.8989 63.9927 63.8942C64.027 63.8896 64.0619 63.8959 64.0923 63.9122L70.3795 67.1417C71.2718 67.603 72.1846 68.0234 73.1077 68.4232L75.159 69.2639C75.59 69.4378 76.0716 69.4378 76.5026 69.2639L83.7436 66.2702L87.7641 75.9688C88.0039 76.5556 88.0657 77.2 87.9417 77.8217C87.8176 78.4434 87.5133 79.0148 87.0666 79.4648L79.4359 87.0924C78.9865 87.5401 78.4147 87.8451 77.7925 87.9691C77.1703 88.0931 76.5253 88.0307 75.9385 87.7896L68.1231 84.5601C68.0465 84.5266 67.9639 84.5088 67.8803 84.5077C67.7967 84.5067 67.7137 84.5224 67.6362 84.5539C67.5588 84.5854 67.4884 84.6322 67.4294 84.6914C67.3703 84.7505 67.3237 84.821 67.2923 84.8985L66.6462 86.4465C66.5815 86.6043 66.5819 86.7812 66.6473 86.9387C66.7126 87.0962 66.8376 87.2215 66.9949 87.2872L74.7897 90.5064C75.9218 90.9822 77.1704 91.1086 78.3749 90.8693C79.5794 90.6299 80.6848 90.0358 81.5487 89.1634L89.1487 81.5665C90.0124 80.6993 90.6006 79.5965 90.8396 78.3963C91.0787 77.1962 90.9578 75.9523 90.4923 74.8206L82.2872 55.1158C82.1044 54.6868 81.7626 54.3451 81.3333 54.1624L80.0308 53.6293C78.8615 53.1474 77.6821 52.7168 76.4821 52.3272L69.7539 50.1743C69.7186 50.1652 69.6873 50.1447 69.6649 50.116C69.6426 50.0872 69.6305 50.0518 69.6305 50.0154C69.6305 49.979 69.6426 49.9436 69.6649 49.9148C69.6873 49.886 69.7186 49.8655 69.7539 49.8565L76.4923 47.6933C77.6821 47.3037 78.8513 46.8731 80 46.4117L81.3333 45.8581C81.7626 45.6754 82.1044 45.3337 82.2872 44.9047L85.3641 37.5846L95.0666 41.5932C95.6509 41.8386 96.1501 42.2503 96.5021 42.7771C96.8541 43.3039 97.0433 43.9226 97.0461 44.5561V55.4234C97.0439 56.0558 96.8549 56.6734 96.5027 57.1987C96.1505 57.724 95.6509 58.1336 95.0666 58.376L87.2513 61.6157C87.1737 61.6472 87.1031 61.6937 87.0436 61.7526C86.9841 61.8114 86.9368 61.8814 86.9044 61.9586C86.872 62.0357 86.8552 62.1185 86.8548 62.2022C86.8545 62.2859 86.8707 62.3688 86.9025 62.4462ZM49.8257 35.5957C49.8347 35.5604 49.8553 35.5291 49.8841 35.5068C49.9128 35.4844 49.9482 35.4723 49.9847 35.4723C50.0211 35.4723 50.0565 35.4844 50.0853 35.5068C50.1141 35.5291 50.1346 35.5604 50.1437 35.5957L51.2821 38.9891C51.7744 40.4962 52.3078 41.9828 52.9334 43.4488L56.4103 52.0094H43.518L47.0667 43.4283C47.6719 41.9828 48.2155 40.5065 48.7078 39.0199L49.8257 35.5957ZM24.1232 66.3522L17.3437 63.5534L20.1745 56.7152L34.9642 50.5639C35.0794 50.517 35.1781 50.4368 35.2475 50.3337C35.3169 50.2305 35.354 50.109 35.354 49.9846C35.354 49.8603 35.3169 49.7387 35.2475 49.6356C35.1781 49.5324 35.0794 49.4522 34.9642 49.4054L20.1745 43.2541L17.3437 36.4158L24.1232 33.617L38.9744 39.7683C39.0892 39.8171 39.216 39.8304 39.3384 39.8067C39.4608 39.7829 39.5734 39.7231 39.6616 39.635C39.7498 39.5468 39.8096 39.4343 39.8333 39.3119C39.8571 39.1896 39.8437 39.0629 39.795 38.9481L33.6411 24.1132L36.4411 17.3263L43.2821 20.1559L48.4103 32.4585L36.5129 61.1646L24.1232 66.3522ZM66.3282 75.8765L63.518 82.6532L56.6872 79.8236L50.5334 65.04C50.4865 64.9248 50.4063 64.8262 50.3031 64.7568C50.1999 64.6874 50.0783 64.6503 49.9539 64.6503C49.8295 64.6503 49.7079 64.6874 49.6047 64.7568C49.5015 64.8262 49.4213 64.9248 49.3744 65.04L43.2206 79.8236L36.3796 82.643L33.5796 75.8765L42.2873 55.0133H57.6718L66.3282 75.8765ZM79.8051 43.3258L65.0052 49.4771C64.8899 49.524 64.7913 49.6042 64.7219 49.7073C64.6525 49.8105 64.6153 49.932 64.6153 50.0564C64.6153 50.1807 64.6525 50.3023 64.7219 50.4054C64.7913 50.5086 64.8899 50.5888 65.0052 50.6356L79.8051 56.787L82.6256 63.6149L75.8974 66.2907L63.518 61.1646L51.6411 32.4585L56.7693 20.1559L63.6 17.3263L66.4103 24.1132L60.2565 38.9481C60.2077 39.0629 60.1943 39.1896 60.2181 39.3119C60.2418 39.4343 60.3017 39.5468 60.3899 39.635C60.478 39.7231 60.5906 39.7829 60.713 39.8067C60.8354 39.8304 60.9622 39.8171 61.077 39.7683L75.9282 33.617L82.7077 36.4158L79.8051 43.3258Z" fill="#211C19"/>
</svg>
