<svg width="61" height="61" viewBox="0 0 61 61" fill="none" xmlns="http://www.w3.org/2000/svg">
<path d="M7.98945 38.0922L7.60155 39.0427C7.56142 39.1387 7.48497 39.2149 7.38887 39.2547C7.29277 39.2945 7.18481 39.2948 7.08853 39.2554L2.33366 37.2854C1.64106 37.0025 1.04884 36.5191 0.633031 35.8973C0.217221 35.2755 -0.00320737 34.5437 3.13778e-05 33.7958L3.1954e-05 27.2042C-0.00320666 26.4563 0.217222 25.7245 0.633032 25.1027C1.04884 24.4809 1.64106 23.9975 2.33367 23.7146L14.3272 18.7553C14.4566 18.6997 14.5961 18.6711 14.737 18.6711C14.8779 18.6711 15.0173 18.6997 15.1468 18.7553L16.3981 19.2744C16.9549 19.5183 17.5117 19.7684 18.0497 20.0498L21.8849 22.0198C21.9041 22.0315 21.9266 22.0365 21.949 22.0338C21.9713 22.0312 21.9921 22.0211 22.008 22.0052C22.0239 21.9893 22.0339 21.9686 22.0366 21.9462C22.0392 21.9239 22.0343 21.9014 22.0225 21.8822L20.0518 18.0424C19.789 17.5358 19.545 17.0167 19.3198 16.4914L18.7567 15.1406C18.6506 14.8778 18.6506 14.5841 18.7567 14.3213L20.5836 9.90611L14.6713 7.45461C14.3133 7.30754 13.9199 7.26945 13.5403 7.34511C13.1608 7.42076 12.812 7.6068 12.5378 7.87987L7.88309 12.539C7.60902 12.8111 7.42219 13.1587 7.34643 13.5374C7.27066 13.916 7.30938 14.3087 7.45766 14.6653L9.42842 19.4307C9.46785 19.5269 9.46762 19.6349 9.42777 19.7309C9.38792 19.827 9.31169 19.9034 9.2157 19.9435L8.27099 20.3313C8.22376 20.3507 8.17317 20.3605 8.1221 20.3604C8.07104 20.3602 8.02052 20.3499 7.97343 20.3301C7.92635 20.3104 7.88363 20.2815 7.84772 20.2452C7.81182 20.2089 7.78345 20.1659 7.76422 20.1186L5.79345 15.3657C5.50947 14.6754 5.43576 13.9165 5.58157 13.1845C5.72737 12.4524 6.08621 11.7797 6.61305 11.2507L11.249 6.61659C11.776 6.0844 12.4503 5.72199 13.185 5.57599C13.9198 5.42999 14.6814 5.50708 15.372 5.79734L27.3905 10.8004C27.5213 10.8539 27.6401 10.9328 27.74 11.0327C27.8399 11.1326 27.9189 11.2513 27.9724 11.382L28.3102 12.195C28.598 12.8954 28.8608 13.6084 29.0923 14.3276L30.4186 18.4426C30.4257 18.4618 30.4385 18.4783 30.4553 18.4899C30.4721 18.5016 30.492 18.5078 30.5125 18.5078C30.5329 18.5078 30.5529 18.5016 30.5696 18.4899C30.5864 18.4783 30.5992 18.4618 30.6063 18.4426L31.9264 14.3338C32.1579 13.6084 32.4207 12.8829 32.7147 12.1763L33.0463 11.382C33.0998 11.2513 33.1788 11.1326 33.2787 11.0327C33.3786 10.9328 33.4974 10.8539 33.6282 10.8004L38.0702 8.96178L35.624 3.04565C35.4763 2.68792 35.2255 2.38215 34.9036 2.16723C34.5816 1.95231 34.203 1.83794 33.8159 1.83866L27.2154 1.83866C26.8291 1.83835 26.4515 1.95296 26.1306 2.16791C25.8097 2.38286 25.5601 2.68841 25.4135 3.04565L23.4365 7.81108C23.4173 7.85836 23.3889 7.90139 23.353 7.93768C23.3171 7.97398 23.2744 8.00283 23.2273 8.02259C23.1802 8.04234 23.1297 8.05261 23.0786 8.0528C23.0276 8.053 22.977 8.04311 22.9297 8.02371L21.985 7.62972C21.889 7.5896 21.8128 7.51318 21.773 7.41712C21.7331 7.32106 21.7329 7.21314 21.7723 7.1169L23.7368 2.37024C24.0167 1.67531 24.4967 1.07909 25.116 0.657139C25.7353 0.235185 26.4659 0.00649002 27.2154 3.60003e-05L33.8033 3.65762e-05C34.5516 -0.0031994 35.2837 0.217143 35.9057 0.632783C36.5277 1.04842 37.0113 1.64039 37.2944 2.33272L42.2307 14.3213C42.3368 14.5841 42.3368 14.8778 42.2307 15.1406L41.6801 16.4601C41.4487 16.9917 41.1984 17.5233 40.9356 18.0424L38.9649 21.8822C38.9549 21.9008 38.951 21.9221 38.9539 21.943C38.9567 21.9639 38.9661 21.9834 38.9807 21.9986C38.9952 22.0139 39.0143 22.0241 39.035 22.0279C39.0558 22.0317 39.0772 22.0289 39.0963 22.0198L42.9314 20.0498C43.4444 19.7872 43.97 19.5433 44.4955 19.3119L45.8469 18.7553C45.9764 18.6997 46.1158 18.6711 46.2567 18.6711C46.3976 18.6711 46.537 18.6997 46.6665 18.7553L51.0835 20.5752L53.5297 14.6653C53.6764 14.3084 53.7142 13.9162 53.6385 13.5379C53.5628 13.1596 53.377 12.812 53.1043 12.539L48.4871 7.87987C48.2139 7.60734 47.8663 7.42157 47.4878 7.34591C47.1093 7.27025 46.7169 7.30807 46.3599 7.45461L41.6051 9.43082C41.5088 9.47023 41.4008 9.47 41.3047 9.43017C41.2086 9.39034 41.1322 9.31414 41.092 9.21819L40.7041 8.27386C40.6647 8.17763 40.665 8.06971 40.7048 7.97365C40.7446 7.87758 40.8209 7.80116 40.9169 7.76105L45.6717 5.79734C46.3551 5.5193 47.1053 5.44873 47.8285 5.59443C48.5518 5.74014 49.2161 6.09567 49.7384 6.6166L54.3806 11.2507C54.9075 11.7797 55.2663 12.4524 55.4121 13.1845C55.5579 13.9166 55.4842 14.6754 55.2002 15.3657L50.1951 27.3856C50.0853 27.6485 49.8762 27.8575 49.6132 27.9672L48.8124 28.2986C48.1055 28.5863 47.3922 28.849 46.6665 29.0866L42.6061 30.4312C42.5846 30.4367 42.5655 30.4492 42.5518 30.4668C42.5382 30.4843 42.5308 30.5059 42.5308 30.5281C42.5308 30.5504 42.5382 30.5719 42.5518 30.5895C42.5655 30.607 42.5846 30.6196 42.6061 30.6251L46.7103 31.9384C47.4673 32.1823 48.2181 32.4575 48.9563 32.7639L49.6383 33.0453C49.9013 33.1551 50.1103 33.364 50.2201 33.6269L52.097 38.0859L58.0156 35.6344C58.373 35.4879 58.6787 35.2384 58.8937 34.9176C59.1087 34.5969 59.2234 34.2194 59.2231 33.8333L59.2231 27.1917C59.2221 26.8051 59.1071 26.4274 58.8923 26.1058C58.6775 25.7843 58.3725 25.5333 58.0156 25.3844L53.2482 23.4144C53.1522 23.3743 53.076 23.2979 53.0362 23.2018C52.9963 23.1057 52.9961 22.9978 53.0355 22.9016L53.4234 21.9573C53.4635 21.8613 53.54 21.7851 53.6361 21.7453C53.7322 21.7055 53.8401 21.7052 53.9364 21.7446L58.6975 23.7146C59.3843 24.0024 59.9699 24.4879 60.3799 25.1093C60.7898 25.7306 61.0057 26.4599 60.9999 27.2042L60.9999 33.7958C61.0051 34.544 60.7887 35.277 60.3779 35.9025C59.9671 36.5279 59.3802 37.0178 58.6913 37.3104L46.6978 42.2697C46.4349 42.3758 46.1411 42.3758 45.8782 42.2697L44.4642 41.6881C43.9637 41.463 43.4632 41.2316 42.969 40.9814L39.1275 39.0115C39.1089 39.0015 39.0877 38.9977 39.0667 39.0005C39.0458 39.0033 39.0264 39.0127 39.0111 39.0273C38.9958 39.0418 38.9855 39.0608 38.9817 39.0816C38.9779 39.1023 38.9808 39.1238 38.9899 39.1428L40.9794 42.9389C41.2422 43.4454 41.4799 43.9583 41.7114 44.4773L42.2745 45.8469C42.3836 46.1113 42.3836 46.4081 42.2745 46.6724L40.4476 51.0501L46.3537 53.5704C46.7098 53.7194 47.1022 53.7591 47.481 53.6845C47.8598 53.6099 48.2079 53.4243 48.4808 53.1514L53.1356 48.4985C53.4081 48.2241 53.5937 47.8755 53.6693 47.4963C53.745 47.117 53.7073 46.724 53.561 46.366L51.584 41.6006C51.5446 41.5043 51.5448 41.3964 51.5847 41.3003C51.6245 41.2043 51.7007 41.1279 51.7967 41.0877L52.7414 40.7C52.8377 40.6606 52.9457 40.6608 53.0418 40.7007C53.1379 40.7405 53.2143 40.8167 53.2545 40.9126L55.2252 45.6656C55.5092 46.3559 55.5829 47.1147 55.4371 47.8468C55.2913 48.5789 54.9325 49.2516 54.4056 49.7806L49.7384 54.3834C49.2086 54.9113 48.5345 55.2707 47.8009 55.4165C47.0672 55.5623 46.3068 55.4879 45.6154 55.2027L33.5906 50.1996C33.3288 50.0882 33.1202 49.8797 33.0088 49.618L32.7147 48.905C32.4082 48.1671 32.1391 47.4229 31.8951 46.6599L30.575 42.5574C30.5679 42.5382 30.5551 42.5217 30.5383 42.5101C30.5216 42.4984 30.5016 42.4922 30.4812 42.4922C30.4608 42.4922 30.4408 42.4984 30.424 42.5101C30.4073 42.5217 30.3945 42.5382 30.3873 42.5574L29.0923 46.6912C28.8483 47.4479 28.573 48.1921 28.2727 48.9238L27.9724 49.643C27.8635 49.9043 27.657 50.113 27.3968 50.2246L22.9422 52.0632L25.3947 57.9856C25.5415 58.347 25.7936 58.6559 26.1183 58.8723C26.4429 59.0886 26.8252 59.2024 27.2153 59.1989L33.8158 59.1989C34.203 59.1996 34.5816 59.0852 34.9036 58.8703C35.2255 58.6554 35.4763 58.3496 35.6239 57.9919L37.601 53.2202C37.6202 53.1729 37.6486 53.1299 37.6845 53.0936C37.7204 53.0573 37.7631 53.0284 37.8102 53.0087C37.8573 52.9889 37.9078 52.9787 37.9588 52.9785C38.0099 52.9783 38.0605 52.9882 38.1077 53.0076L39.0524 53.4015C39.1484 53.4417 39.2247 53.5181 39.2645 53.6141C39.3044 53.7102 39.3046 53.8181 39.2652 53.9144L37.2944 58.6673C37.0113 59.3596 36.5277 59.9516 35.9057 60.3672C35.2837 60.7829 34.5515 61.0032 33.8033 61L27.2153 61C26.4671 61.0032 25.735 60.7829 25.113 60.3672C24.4909 59.9516 24.0073 59.3596 23.7243 58.6673L18.7567 46.6912C18.6502 46.4263 18.6502 46.1306 18.7567 45.8657L19.3823 44.4085C19.5951 43.9207 19.8265 43.4392 20.0705 42.9639L22.0413 39.1178C22.0504 39.0988 22.0533 39.0773 22.0495 39.0566C22.0457 39.0358 22.0354 39.0168 22.0201 39.0022C22.0049 38.9877 21.9854 38.9783 21.9645 38.9755C21.9435 38.9726 21.9223 38.9765 21.9037 38.9865L18.0685 40.9564C17.5242 41.2378 16.9674 41.4942 16.4043 41.7381L15.153 42.251C14.8901 42.357 14.5963 42.357 14.3334 42.251L9.91642 40.4248L7.46391 46.341C7.3176 46.6989 7.27994 47.092 7.35559 47.4712C7.43124 47.8505 7.61687 48.199 7.88935 48.4735L12.5441 53.1264C12.8183 53.3994 13.167 53.5855 13.5466 53.6611C13.9261 53.7368 14.3196 53.6987 14.6775 53.5516L19.4449 51.5817C19.4916 51.5612 19.542 51.5504 19.593 51.5497C19.644 51.5491 19.6947 51.5586 19.7419 51.5779C19.7891 51.5971 19.8321 51.6256 19.8681 51.6617C19.9041 51.6978 19.9325 51.7408 19.9517 51.7881L20.3458 52.7324C20.3853 52.8286 20.385 52.9365 20.3452 53.0326C20.3053 53.1287 20.2291 53.2051 20.1331 53.2452L15.3782 55.2089C14.6877 55.4992 13.926 55.5763 13.1913 55.4303C12.4565 55.2843 11.7823 54.9219 11.2553 54.3897L6.6193 49.7556C6.09246 49.2266 5.73363 48.5538 5.58783 47.8218C5.44202 47.0897 5.51574 46.3309 5.79971 45.6405L10.8048 33.6207C10.9163 33.3589 11.1248 33.1505 11.3867 33.0391L12.1812 32.7139C12.8945 32.4199 13.6139 32.1573 14.3459 31.9196L18.4501 30.6063C18.4717 30.6008 18.4908 30.5883 18.5044 30.5707C18.518 30.5532 18.5254 30.5316 18.5254 30.5094C18.5254 30.4872 18.518 30.4656 18.5044 30.448C18.4908 30.4305 18.4717 30.418 18.4501 30.4124L14.3397 29.0929C13.6139 28.8552 12.9007 28.5926 12.2 28.3112L11.3867 27.9734C11.1248 27.862 10.9163 27.6536 10.8048 27.3918L8.92791 22.9266L3.00936 25.3719C2.65293 25.5215 2.34842 25.7727 2.13371 26.094C1.91902 26.4154 1.80362 26.7928 1.80188 27.1792L1.80188 33.8083C1.80322 34.194 1.91853 34.5708 2.13336 34.8912C2.34819 35.2116 2.65295 35.4615 3.00936 35.6094L7.77673 37.5856C7.82403 37.6048 7.86708 37.6332 7.90339 37.6691C7.9397 37.705 7.96856 37.7477 7.98832 37.7947C8.00809 37.8418 8.01836 37.8923 8.01855 37.9433C8.01874 37.9944 8.00886 38.0449 7.98945 38.0922ZM30.6063 21.7134C30.6008 21.6918 30.5883 21.6728 30.5707 21.6591C30.5532 21.6455 30.5316 21.6381 30.5093 21.6381C30.4871 21.6381 30.4655 21.6455 30.448 21.6591C30.4304 21.6728 30.4179 21.6918 30.4124 21.7134L29.7179 23.7834C29.4176 24.7027 29.0923 25.6095 28.7106 26.5038L26.5897 31.7258L34.454 31.7258L32.2893 26.4913C31.9202 25.6095 31.5886 24.7089 31.2883 23.8021L30.6063 21.7134ZM46.2848 40.4749L50.4203 38.7676L48.6936 34.5963L39.6718 30.844C39.6016 30.8154 39.5414 30.7665 39.499 30.7035C39.4567 30.6406 39.4341 30.5665 39.4341 30.4906C39.4341 30.4148 39.4567 30.3406 39.499 30.2777C39.5414 30.2148 39.6016 30.1659 39.6718 30.1373L48.6936 26.385L50.4203 22.2137L46.2848 20.5064L37.2256 24.2587C37.1556 24.2884 37.0783 24.2966 37.0036 24.2821C36.9289 24.2676 36.8602 24.2311 36.8064 24.1773C36.7527 24.1236 36.7162 24.0549 36.7017 23.9803C36.6872 23.9056 36.6953 23.8284 36.7251 23.7584L40.4789 14.7091L38.7709 10.569L34.5979 12.2951L31.4697 19.7997L38.7271 37.3104L46.2848 40.4749ZM20.5398 46.2847L22.254 50.4185L26.4208 48.6924L30.1746 39.6744C30.2032 39.6041 30.2521 39.544 30.3151 39.5016C30.3781 39.4593 30.4522 39.4367 30.5281 39.4367C30.604 39.4367 30.6782 39.4593 30.7411 39.5016C30.8041 39.544 30.853 39.6041 30.8816 39.6744L34.6354 48.6924L38.8085 50.4122L40.5164 46.2847L35.2048 33.5581L25.8202 33.5581L20.5398 46.2847ZM12.3189 26.4287L21.3468 30.1811C21.4171 30.2096 21.4773 30.2585 21.5197 30.3215C21.562 30.3844 21.5846 30.4585 21.5846 30.5344C21.5846 30.6102 21.562 30.6844 21.5197 30.7473C21.4773 30.8103 21.4171 30.8591 21.3468 30.8877L12.3189 34.64L10.5984 38.8051L14.7026 40.4373L22.254 37.3104L29.4989 19.7997L26.3707 12.2951L22.204 10.569L20.4897 14.7091L24.2436 23.7584C24.2733 23.8284 24.2815 23.9056 24.267 23.9803C24.2525 24.0549 24.216 24.1236 24.1622 24.1773C24.1084 24.2311 24.0397 24.2676 23.9651 24.2821C23.8904 24.2966 23.8131 24.2884 23.7431 24.2587L14.6838 20.5064L10.5483 22.2137L12.3189 26.4287Z" fill="white"/>
</svg>
